<?xml version="1.0" standalone="no"?>
<!DOCTYPE svg PUBLIC "-//W3C//DTD SVG 20010904//EN"
 "http://www.w3.org/TR/2001/REC-SVG-20010904/DTD/svg10.dtd">
<svg version="1.0" xmlns="http://www.w3.org/2000/svg"
 width="300.000000pt" height="225.000000pt" viewBox="0 0 300.000000 225.000000"
 preserveAspectRatio="xMidYMid meet">
<metadata>
Created by potrace 1.10, written by Peter Selinger 2001-2011
</metadata>
<g transform="translate(0.000000,225.000000) scale(0.100000,-0.100000)"
fill="#000000" stroke="none">
<path d="M120 2226 c0 -17 2 -18 10 -6 8 13 10 13 10 -2 0 -9 -5 -18 -12 -20
-7 -3 -6 -7 5 -11 14 -5 17 0 17 27 0 22 -5 33 -15 33 -9 0 -15 -9 -15 -21z"/>
<path d="M673 2150 c0 -103 0 -103 6 -30 4 41 4 89 0 105 -4 17 -7 -17 -6 -75z"/>
<path d="M870 2226 c0 -17 2 -18 10 -6 8 11 9 9 8 -12 -1 -16 -7 -28 -13 -28
-6 0 -5 -3 1 -8 7 -4 14 -18 17 -32 2 -14 5 5 6 41 1 52 -2 66 -14 66 -9 0
-15 -9 -15 -21z"/>
<path d="M973 2195 c0 -33 2 -45 4 -27 2 18 2 45 0 60 -2 15 -4 0 -4 -33z"/>
<path d="M1420 2120 c0 -73 3 -130 7 -127 8 8 6 247 -2 255 -3 3 -5 -55 -5
-128z"/>
<path d="M1620 2238 c0 -4 5 -8 10 -8 6 0 10 -7 10 -15 0 -8 -6 -15 -12 -15
-9 0 -8 -4 2 -10 10 -6 11 -10 3 -10 -7 0 -13 -5 -13 -11 0 -5 4 -8 9 -4 5 3
12 -5 14 -17 2 -13 5 4 6 38 1 48 -2 61 -14 61 -8 0 -15 -4 -15 -9z"/>
<path d="M2172 2185 c0 -58 2 -64 8 -32 4 21 4 53 0 70 -6 24 -8 15 -8 -38z"/>
<path d="M2370 2226 c0 -17 2 -18 10 -6 8 13 10 12 10 -2 0 -10 -6 -18 -12
-18 -9 0 -8 -4 2 -10 10 -6 11 -10 3 -10 -7 0 -13 -5 -13 -11 0 -5 5 -7 10 -4
6 3 10 1 10 -4 0 -6 -4 -11 -10 -11 -5 0 -10 -4 -10 -8 0 -5 6 -9 14 -9 10 0
14 16 15 57 0 44 -3 57 -14 57 -9 0 -15 -9 -15 -21z"/>
<path d="M2473 2190 c0 -36 2 -50 4 -32 2 17 2 47 0 65 -2 17 -4 3 -4 -33z"/>
<path d="M2922 1869 c1 -211 4 -361 7 -334 7 63 4 705 -3 713 -3 3 -5 -168 -4
-379z"/>
<path d="M2537 2193 c-4 -20 -3 -43 2 -50 5 -9 8 5 10 36 2 60 -4 66 -12 14z"/>
<path d="M1842 2190 c8 -14 27 -46 42 -72 15 -27 30 -48 33 -48 3 0 -4 16 -16
36 -12 19 -21 40 -21 45 0 5 -12 22 -27 37 -26 27 -26 27 -11 2z"/>
<path d="M1558 2047 c-136 -78 -249 -145 -252 -148 -12 -11 44 -163 83 -225
23 -36 41 -69 41 -74 0 -5 8 -14 18 -19 9 -6 13 -11 9 -11 -11 0 56 -120 68
-120 5 0 58 14 117 32 87 25 108 35 108 50 0 10 -7 18 -16 18 -12 0 -15 7 -12
25 3 14 2 28 -2 30 -4 2 -5 15 -3 28 3 16 -4 33 -22 53 -21 24 -24 25 -15 6 6
-12 8 -27 5 -33 -4 -5 -2 -15 3 -22 7 -8 5 -17 -5 -26 -14 -12 -15 -12 -11 0
3 8 -4 32 -17 54 -12 22 -25 52 -29 68 -4 16 -13 27 -23 27 -14 0 -14 -2 3
-14 18 -14 18 -15 -6 -25 -24 -9 -24 -10 -2 -10 20 -1 27 -11 23 -34 -1 -5 3
-6 9 -2 5 3 10 -1 10 -9 0 -10 -6 -13 -17 -10 -15 5 -16 4 -3 -5 8 -6 15 -14
16 -18 0 -4 6 -21 13 -37 11 -28 12 -28 31 -11 11 10 20 16 21 14 10 -50 -6
-75 -42 -66 -16 4 -18 3 -8 -9 9 -11 8 -14 -2 -13 -17 1 -58 17 -45 18 5 1
-12 25 -36 54 -38 43 -44 56 -37 75 5 13 19 26 31 30 21 5 21 6 2 12 -23 9
-44 -6 -44 -31 0 -11 -4 -19 -10 -19 -6 0 -6 -9 0 -26 14 -35 13 -37 -10 -31
-11 3 -18 1 -15 -3 3 -5 1 -11 -5 -15 -5 -3 -10 1 -10 9 0 8 -9 20 -21 27 -14
7 -19 17 -16 30 3 10 1 22 -5 25 -5 3 -7 12 -4 20 3 8 0 11 -10 7 -9 -3 -14 1
-14 14 0 10 -6 27 -13 38 -18 28 -39 77 -30 72 5 -3 14 2 22 10 12 13 11 14
-5 9 -15 -4 -19 0 -20 19 -1 14 2 25 7 25 4 0 6 7 3 15 -4 10 0 15 12 15 9 0
26 7 36 17 17 15 20 15 43 -7 14 -13 25 -18 25 -12 0 7 -5 12 -11 12 -6 0 -9
12 -7 28 2 15 8 25 13 24 6 -2 9 -9 7 -15 -2 -7 -1 -9 3 -5 4 3 20 2 36 -2 16
-5 27 -5 24 0 -3 4 1 11 7 14 7 3 1 3 -14 0 -16 -4 -28 -4 -28 -2 0 11 40 50
74 73 42 28 54 32 36 10 -10 -12 -10 -15 4 -15 9 0 16 7 16 15 0 9 12 18 30
22 17 3 30 9 30 13 0 4 13 10 30 13 20 4 28 11 24 20 -3 9 3 17 17 20 29 8 39
1 39 -25 0 -18 2 -19 17 -7 15 13 16 11 10 -13 -4 -15 -3 -30 3 -33 6 -4 7 1
3 12 -6 16 -5 16 10 4 10 -8 17 -21 16 -30 -1 -9 0 -19 1 -23 5 -15 8 -28 9
-42 0 -8 9 -17 19 -21 14 -5 15 -4 5 6 -15 15 -17 29 -4 29 11 0 19 -30 14
-47 -4 -10 -10 -10 -24 -2 -15 7 -24 7 -35 -2 -12 -10 -13 -9 -8 5 4 10 1 16
-9 16 -10 0 -15 -8 -14 -20 1 -18 8 -20 75 -20 40 0 72 4 70 8 -12 29 -152
262 -157 262 -3 0 -117 -65 -253 -143z m-4 -505 c4 -12 12 -22 18 -22 5 0 8 7
4 15 -3 8 -1 15 4 15 14 0 21 -18 10 -25 -5 -3 -10 -15 -10 -26 0 -10 -5 -19
-11 -19 -20 0 -49 21 -49 35 0 9 -6 12 -17 8 -17 -6 -17 -5 0 14 17 20 17 21
0 28 -17 7 -17 8 2 15 22 8 39 -5 49 -38z"/>
<path d="M1167 2168 c-31 -11 -27 -28 8 -28 22 0 23 -2 14 -32 -5 -18 -9 -34
-9 -35 0 -1 7 -9 16 -18 13 -12 14 -19 4 -30 -10 -12 -8 -17 11 -24 21 -9 20
-10 -16 -10 -49 -1 -37 -16 29 -36 25 -8 46 -13 46 -12 0 1 -14 45 -30 97 -16
52 -30 103 -30 112 0 23 -10 27 -43 16z"/>
<path d="M1231 2148 c23 -73 27 -83 28 -65 1 23 -22 97 -31 97 -4 0 -2 -15 3
-32z"/>
<path d="M76 2155 c-14 -38 -6 -52 37 -62 104 -26 345 -81 380 -87 36 -7 37
-8 32 -44 -11 -69 -33 -167 -35 -152 -1 8 -1 21 0 29 1 9 -4 12 -14 8 -9 -4
-16 -2 -16 3 0 6 -5 10 -11 10 -5 0 -7 -4 -4 -10 3 -5 1 -10 -4 -10 -6 0 -11
-7 -11 -15 0 -9 9 -15 23 -15 16 0 28 -9 38 -27 l13 -28 4 33 c3 32 32 48 32
17 0 -8 7 -15 15 -15 8 0 12 -6 9 -14 -3 -8 -12 -12 -20 -9 -10 4 -14 -3 -13
-23 1 -24 2 -25 7 -9 4 11 16 21 27 22 11 1 34 5 50 9 27 6 28 5 17 -9 -11
-13 -10 -16 5 -20 10 -2 1 -4 -19 -3 -41 0 -57 -9 -42 -24 7 -7 26 -5 57 6 49
17 59 30 30 36 -12 3 -7 8 17 15 19 6 43 14 53 18 12 5 17 2 17 -11 0 -13 -19
-28 -62 -49 -49 -24 -57 -31 -38 -33 12 -2 27 2 31 10 7 10 9 9 9 -3 0 -9 8
-23 17 -30 11 -10 14 -10 9 -1 -4 6 -2 12 3 12 14 0 13 -11 -2 -31 -7 -9 -19
-14 -27 -12 -9 3 -8 0 3 -7 15 -10 21 -8 32 6 12 17 13 16 8 -11 -3 -17 -10
-35 -14 -41 -5 -6 -6 -14 -2 -17 17 -18 31 -2 43 51 7 31 15 63 18 71 4 10 0
13 -15 9 -11 -3 -30 0 -43 7 l-23 13 21 11 c17 9 22 9 22 -1 0 -8 5 -6 11 5 5
9 17 17 24 17 8 0 15 4 15 10 0 5 -7 7 -15 4 -10 -4 -15 0 -15 14 0 13 9 22
25 26 14 4 25 11 25 17 0 12 -19 7 -105 -27 -53 -22 -61 -23 -71 -9 -6 8 -18
15 -27 15 -20 0 -31 17 -15 23 7 3 -2 6 -21 6 -24 1 -32 5 -28 15 6 15 20 69
31 117 l6 26 122 -33 c128 -34 138 -33 138 12 0 18 -20 25 -187 67 -104 26
-269 65 -368 88 -99 23 -185 43 -191 46 -6 2 -14 -3 -18 -12z"/>
<path d="M742 2128 c-2 -29 -6 -38 -19 -38 -17 -1 -17 -1 0 -11 25 -15 29 -8
24 42 -3 43 -4 43 -5 7z"/>
<path d="M903 2092 c-90 -26 -163 -49 -163 -52 0 -9 141 -37 146 -29 2 4 -5
10 -16 14 -23 7 -25 18 -7 33 15 13 107 -26 107 -45 0 -9 21 -13 68 -14 37 0
76 -4 87 -8 17 -7 16 -9 -10 -16 -17 -4 -39 -9 -49 -10 -11 -1 -22 -7 -24 -13
-2 -6 -10 -8 -18 -5 -10 4 -12 0 -8 -11 6 -15 9 -15 30 -1 35 23 38 18 10 -16
-14 -17 -26 -34 -26 -39 0 -14 48 -40 75 -40 14 0 28 -7 31 -15 6 -15 44 -22
44 -7 -1 14 -64 52 -70 41 -10 -15 -40 1 -40 22 0 10 5 19 11 19 5 0 17 16 25
35 17 43 29 44 42 6 6 -17 24 -37 44 -47 19 -10 28 -19 20 -22 -10 -3 -8 -7 5
-17 15 -11 20 -10 31 6 7 11 18 17 23 14 12 -8 12 -72 0 -79 -11 -7 -33 18
-24 27 10 11 -16 8 -38 -3 -16 -9 -17 -14 -6 -30 9 -16 20 -19 49 -16 29 4 38
1 38 -10 0 -8 -4 -14 -10 -14 -5 0 -10 -5 -10 -11 0 -8 4 -8 14 0 10 9 16 8
26 -4 12 -14 7 -20 -14 -16 -4 1 -17 -1 -28 -4 -16 -6 -17 -9 -7 -22 10 -12
10 -16 0 -23 -7 -4 -14 -29 -16 -56 -3 -43 -2 -46 8 -24 15 33 14 33 26 26 7
-5 7 -15 0 -33 -12 -33 -10 -35 32 -23 63 18 63 18 34 116 -15 49 -37 125 -49
168 -16 56 -27 80 -39 82 -10 1 -14 -2 -11 -8 5 -7 -3 -9 -22 -4 -16 4 -30 12
-32 17 -2 5 -10 9 -17 9 -11 0 -21 13 -30 40 -10 29 -20 40 -36 40 -10 0 -19
5 -19 10 0 6 -9 10 -21 10 -15 0 -19 -4 -15 -16 5 -13 1 -15 -18 -10 -45 11
-98 48 -87 59 8 8 15 7 23 -1 14 -14 42 -16 34 -3 -8 12 50 34 74 28 11 -3 20
-2 20 3 0 13 33 21 44 10 7 -7 2 -10 -14 -10 -22 -1 -23 -2 -7 -11 12 -7 23
-6 37 4 20 14 20 14 -4 31 -37 24 -74 19 -253 -32z m411 -404 c-4 -7 -17 -19
-27 -27 -19 -14 -19 -14 7 -28 28 -14 32 -43 8 -51 -7 -2 -10 2 -6 12 3 9 -3
20 -15 28 -26 16 -26 22 2 52 24 26 43 34 31 14z"/>
<path d="M2755 2085 c3 -33 8 -180 11 -327 6 -221 9 -268 21 -268 8 0 11 5 7
11 -6 10 -14 309 -14 542 0 45 -4 76 -9 72 -5 -3 -12 3 -15 12 -3 10 -3 -9 -1
-42z"/>
<path d="M2430 2109 c-96 -3 -210 -7 -254 -8 -61 -1 -77 -4 -73 -14 3 -8 8
-145 12 -305 l8 -292 267 0 267 0 22 138 c12 75 28 162 35 192 l14 55 3 -132
c5 -228 5 -228 -11 -229 -40 -3 -41 -7 -5 -14 22 -4 41 -7 41 -6 2 1 -15 387
-22 524 l-6 102 -61 -2 c-34 -1 -141 -5 -237 -9z m275 -27 c3 -8 -2 -55 -12
-104 -13 -71 -14 -91 -4 -97 16 -10 8 -60 -30 -172 -29 -87 -39 -140 -19 -109
15 25 20 6 8 -36 -6 -21 -13 -33 -15 -27 -4 10 -11 10 -32 -1 -36 -19 -400
-26 -428 -8 -7 4 -15 71 -23 177 -18 266 -18 304 -1 318 12 10 13 8 6 -12 -5
-17 -4 -21 5 -16 6 4 10 16 7 26 -3 11 -1 19 5 19 5 0 6 5 3 10 -5 8 -11 7
-21 -1 -15 -13 -17 -9 -8 15 3 9 11 13 18 9 19 -12 48 -14 61 -3 7 5 23 10 36
10 37 0 82 1 239 8 80 4 157 7 172 8 16 1 29 -5 33 -14z m17 -142 c-3 -38 -8
-58 -14 -54 -14 9 0 114 15 114 1 0 0 -27 -1 -60z"/>
<path d="M2429 1823 c-42 -5 -73 -32 -63 -57 8 -21 30 -21 43 2 6 9 11 11 11
5 0 -18 20 -16 20 1 0 7 7 20 17 27 15 13 16 11 10 -22 -3 -22 -1 -42 6 -49 9
-10 9 -11 -3 -5 -13 8 -13 7 -1 -8 7 -9 10 -17 6 -17 -4 0 -2 -7 5 -15 10 -12
8 -21 -8 -47 -31 -49 -53 -60 -79 -38 -12 10 -20 20 -17 23 3 3 0 15 -6 27
-15 28 -7 35 35 32 25 -2 35 2 35 12 0 9 -8 14 -20 13 -11 -1 -20 -4 -20 -7 0
-3 -8 -6 -19 -7 -14 -1 -17 3 -14 18 3 10 9 16 14 13 5 -3 9 0 9 6 0 7 -6 10
-14 7 -7 -3 -18 -1 -24 5 -15 15 -34 -35 -26 -70 8 -40 36 -105 53 -125 15
-18 16 -18 22 0 7 17 8 17 8 1 1 -21 5 -22 32 -8 10 6 19 17 19 25 0 7 11 26
24 42 38 45 41 75 15 127 -22 45 -20 71 3 48 16 -16 38 -15 38 2 0 30 -46 46
-111 39z"/>
<path d="M52 2039 c-17 -73 -13 -82 8 -19 10 30 15 58 11 63 -4 4 -13 -15 -19
-44z"/>
<path d="M1271 2018 c4 -24 12 -54 18 -68 11 -24 11 -24 6 5 -13 84 -18 105
-25 105 -4 0 -4 -19 1 -42z"/>
<path d="M1941 2019 c11 -23 22 -39 25 -37 7 8 -20 67 -33 72 -9 4 -6 -9 8
-35z"/>
<path d="M310 2006 c0 -10 -5 -14 -12 -10 -7 5 -8 3 -3 -5 4 -7 2 -46 -5 -87
-11 -64 -16 -74 -33 -74 -11 0 -28 7 -37 15 -15 14 -18 14 -30 0 -10 -12 -10
-15 4 -15 9 0 16 -6 16 -13 0 -9 10 -12 30 -9 27 4 30 1 30 -21 0 -39 -10 -57
-32 -57 -10 0 -17 3 -14 8 2 4 -1 16 -7 27 -14 24 -39 32 -31 10 4 -8 10 -15
15 -15 16 0 9 -18 -8 -22 -10 -3 1 -8 24 -12 30 -5 40 -11 36 -22 -6 -17 -25
-18 -41 -2 -7 7 -30 11 -52 9 -31 -2 -40 1 -40 13 0 10 9 16 24 16 14 0 27 4
30 9 4 5 -2 7 -13 4 -31 -8 -32 12 -1 60 l29 46 -22 7 c-12 4 -35 8 -50 8 -15
1 -31 6 -35 12 -4 6 -20 10 -37 9 -24 -1 -31 -7 -33 -26 -1 -13 2 -30 7 -38
12 -18 33 -4 26 18 -4 14 0 18 17 16 42 -4 43 -5 28 -15 -20 -13 -4 -13 21 0
14 8 19 7 19 -1 0 -6 7 -9 15 -5 19 7 19 -8 1 -24 -8 -6 -16 -21 -18 -33 -2
-16 -9 -22 -28 -21 -14 1 -37 2 -52 3 -18 1 -28 7 -28 16 0 8 -4 15 -9 15 -16
0 -7 -73 9 -76 8 -1 29 -5 45 -8 l30 -6 -28 11 c-15 6 -25 15 -22 20 4 5 -1 6
-9 3 -9 -4 -16 -1 -16 6 0 9 10 10 33 5 17 -4 38 -7 45 -8 7 0 10 -8 7 -18 -6
-19 -5 -20 98 -44 83 -18 82 -18 68 -2 -12 15 -5 27 16 27 7 0 13 -8 13 -17
-1 -24 -25 -55 -35 -45 -5 4 -5 2 -1 -5 3 -6 -4 -21 -16 -32 -12 -12 -19 -21
-15 -21 4 0 25 16 47 36 22 20 43 34 47 30 3 -3 0 -6 -8 -6 -12 0 -12 -2 0 -9
11 -7 9 -13 -8 -30 -11 -11 -18 -27 -15 -36 4 -8 1 -15 -5 -15 -6 0 -11 8 -11
18 0 11 -3 13 -8 6 -8 -13 -54 -1 -171 42 -47 17 -68 21 -82 13 -41 -22 -13
-36 119 -61 34 -6 62 -16 62 -21 0 -5 6 -7 14 -4 13 5 45 -2 101 -24 51 -19
56 -19 65 4 6 12 16 30 22 40 11 15 10 20 -4 31 -10 7 -15 16 -11 19 3 4 -1 7
-10 7 -10 0 -17 -6 -18 -12 0 -7 -5 0 -9 16 -6 20 -5 32 5 42 17 18 26 18 19
0 -3 -7 2 -16 10 -19 21 -8 21 17 0 38 -15 15 -18 14 -37 -6 l-20 -22 -14 27
c-7 14 -18 26 -23 26 -6 0 -10 7 -10 15 0 8 8 15 17 15 15 0 14 2 -2 14 -19
14 -19 16 4 131 12 64 20 119 17 122 -3 4 -6 -1 -6 -11z m39 -429 c0 -21 -1
-21 -9 -2 -8 19 -9 19 -9 -2 -1 -13 -7 -23 -14 -23 -18 0 -15 39 3 50 19 12
30 3 29 -23z"/>
<path d="M391 1987 c3 -23 -1 -40 -8 -34 -3 4 -12 2 -20 -4 -10 -9 -13 -6 -14
17 0 18 -6 6 -14 -31 -7 -33 -20 -77 -28 -96 -14 -35 -8 -75 7 -50 4 6 3 11
-3 11 -6 0 -8 7 -4 16 4 12 8 13 14 3 5 -9 13 -3 26 21 26 50 71 90 91 83 9
-3 14 -3 10 2 -4 4 -2 15 5 24 6 8 -3 5 -21 -8 -39 -27 -51 -22 -28 13 20 31
20 32 1 40 -9 3 -15 1 -14 -7z m-15 -52 c-3 -8 0 -15 7 -15 7 0 4 -5 -6 -11
-9 -5 -24 -26 -32 -46 -8 -20 -18 -33 -21 -30 -8 8 16 79 34 100 19 21 26 22
18 2z"/>
<path d="M1782 1964 c-1 -15 -7 -33 -13 -41 -10 -11 -8 -12 12 -5 24 9 40 42
20 42 -6 0 -8 7 -5 15 4 8 2 15 -3 15 -5 0 -10 -12 -11 -26z"/>
<path d="M247 1950 c3 -14 6 -33 5 -42 0 -10 3 -20 9 -23 14 -9 10 26 -6 60
-12 24 -14 25 -8 5z"/>
<path d="M1984 1943 c59 -113 106 -185 106 -165 0 13 -11 38 -24 55 -14 18
-28 44 -31 59 -4 16 -11 25 -16 22 -5 -3 -9 2 -9 10 0 9 -4 16 -10 16 -5 0
-10 7 -10 15 0 8 -5 15 -10 15 -6 0 -4 -11 4 -27z"/>
<path d="M878 1928 c-35 -31 -39 -41 -68 -168 -39 -168 -45 -210 -33 -210 16
0 32 22 26 36 -4 10 5 14 33 15 l39 2 -39 6 c-22 3 -41 12 -44 19 -2 6 1 12 7
12 6 0 11 8 11 18 0 10 3 22 7 26 4 3 7 19 8 34 1 15 7 40 13 55 7 16 12 34
12 42 0 8 5 17 10 20 6 3 10 1 10 -4 0 -6 5 -11 10 -11 15 0 12 16 -6 34 -8 9
-11 16 -5 16 6 0 11 7 11 15 0 8 5 15 10 15 6 0 10 -11 10 -24 0 -13 7 -26 15
-30 12 -4 15 3 15 34 0 42 5 47 31 27 12 -9 16 -28 14 -75 0 -34 2 -56 7 -50
7 12 12 4 9 -15 -1 -4 6 -16 16 -25 16 -16 16 -16 9 8 -15 47 -18 100 -7 114
8 10 8 21 1 40 -8 21 -15 26 -30 21 -13 -4 -22 -1 -26 9 -3 9 -10 13 -15 10
-5 -3 -9 0 -9 5 0 18 -14 12 -52 -21z"/>
<path d="M1583 1937 c1 -7 9 -17 17 -24 8 -7 10 -13 4 -13 -24 0 -53 -36 -47
-58 7 -29 19 -28 27 3 8 33 54 56 98 49 31 -5 34 -9 30 -34 -2 -15 1 -31 7
-34 6 -4 11 -20 11 -37 0 -35 9 -37 40 -4 12 13 26 22 31 20 4 -3 10 -1 13 4
3 5 -1 11 -9 15 -19 7 -20 36 0 36 8 0 19 -9 25 -20 9 -17 14 -18 35 -8 25 11
34 28 15 28 -5 0 -10 -6 -10 -12 0 -9 -3 -8 -10 2 -5 8 -13 15 -17 16 -4 0
-21 4 -36 9 -17 4 -33 3 -39 -3 -11 -11 -50 -4 -43 8 9 15 -27 41 -54 39 -42
-3 -63 0 -57 10 3 5 -3 11 -14 14 -11 3 -18 0 -17 -6z"/>
<path d="M1894 1895 c-11 -8 -14 -15 -6 -15 6 0 12 -9 12 -20 0 -14 7 -20 21
-20 27 0 99 -42 99 -57 0 -7 5 -13 10 -13 15 0 12 34 -6 56 -8 10 -12 12 -8 4
7 -13 5 -13 -9 -1 -9 7 -17 10 -17 6 0 -5 -9 0 -20 10 -11 10 -20 25 -20 34 0
12 -3 12 -12 3 -19 -19 -30 -14 -18 8 13 24 2 26 -26 5z"/>
<path d="M393 1827 c4 -10 3 -15 -2 -12 -5 3 -17 -5 -26 -17 l-17 -23 7 22 c5
18 3 22 -9 17 -9 -3 -16 -13 -16 -20 0 -20 30 -30 40 -14 5 8 10 9 14 2 3 -6
-3 -13 -14 -17 -24 -7 -25 -15 -7 -40 13 -17 15 -17 35 3 24 24 25 84 2 105
-10 10 -12 9 -7 -6z"/>
<path d="M1680 1825 c0 -18 -12 -19 -28 -3 -6 6 -15 8 -19 4 -11 -11 13 -41
31 -38 9 2 16 -2 16 -8 0 -6 5 -8 11 -4 8 5 8 9 -1 14 -9 6 -9 13 -1 29 8 14
8 21 1 21 -5 0 -10 -7 -10 -15z"/>
<path d="M1089 1817 c-1 -7 -1 -20 0 -29 1 -10 -3 -18 -9 -18 -6 0 -9 -4 -5
-10 9 -14 34 0 28 16 -3 8 0 20 6 28 9 10 8 15 -4 20 -8 3 -16 0 -16 -7z"/>
<path d="M1833 1795 c-24 -21 -26 -26 -13 -34 11 -8 17 -5 23 11 4 12 13 28
19 35 17 21 1 15 -29 -12z"/>
<path d="M1897 1786 c-10 -11 -15 -15 -12 -8 4 7 0 12 -8 12 -27 0 -28 -31 -2
-62 24 -29 29 -40 26 -65 -1 -7 7 -9 21 -6 19 5 21 3 11 -8 -16 -16 -17 -29
-2 -29 5 0 7 5 3 11 -5 9 1 10 20 5 26 -6 37 8 14 18 -9 3 -7 9 6 20 23 18 61
22 50 5 -3 -6 8 -4 24 5 18 9 33 12 37 6 6 -9 -53 -46 -68 -42 -5 1 -6 -2 -2
-8 3 -5 1 -10 -5 -10 -6 0 -8 -5 -4 -12 5 -8 2 -9 -9 -5 -9 3 -19 2 -22 -2
-12 -20 26 -17 74 5 51 25 52 25 47 66 -3 22 -13 52 -22 66 -16 24 -18 24 -30
8 -13 -18 -54 -15 -54 4 0 5 -7 7 -15 4 -10 -4 -19 4 -26 22 -7 19 -13 24 -16
15 -3 -8 -8 -9 -12 -3 -3 5 -14 1 -24 -12z m49 -18 c5 -7 2 -9 -9 -5 -9 3 -18
-1 -21 -10 -5 -11 -2 -14 10 -9 19 7 54 -19 54 -40 0 -8 -12 -17 -26 -20 -43
-11 -83 53 -52 84 15 15 35 15 44 0z m118 -34 c13 -5 14 -10 6 -20 -14 -16
-41 -7 -33 12 6 16 6 16 27 8z"/>
<path d="M1173 1763 c8 -16 20 -39 26 -53 9 -21 10 -18 5 20 -8 54 -11 60 -30
60 -13 0 -13 -3 -1 -27z"/>
<path d="M1044 1759 c-23 -28 -42 -75 -47 -119 -6 -41 -4 -47 23 -68 20 -16
37 -21 50 -17 20 6 19 25 -1 25 -6 0 -7 -5 -3 -12 5 -7 2 -8 -7 -3 -51 29 -55
53 -15 88 23 21 61 19 62 -3 3 -51 3 -51 23 -38 11 7 17 17 14 23 -4 5 13 -9
37 -33 35 -35 41 -45 29 -52 -8 -6 -15 -6 -17 0 -2 6 -13 10 -25 9 -21 0 -21
-1 -2 -8 19 -8 19 -8 -3 -15 -13 -4 -42 -5 -65 -2 -24 3 -34 3 -24 -2 17 -7
16 -9 -8 -20 -32 -15 -45 -15 -45 -1 0 5 4 8 9 4 5 -3 12 -1 16 5 3 5 2 10 -3
10 -13 0 -69 -30 -57 -30 6 0 -1 -9 -15 -20 -14 -11 -20 -20 -13 -20 6 0 19 7
28 16 8 9 23 13 32 10 12 -5 228 48 240 58 2 1 -17 24 -41 49 -24 26 -50 57
-58 69 -18 27 -81 33 -115 12 -20 -13 -22 -12 -16 3 3 10 17 28 32 40 14 13
21 23 14 23 -6 0 -13 7 -15 17 -2 14 -5 14 -14 2z"/>
<path d="M434 1739 c-3 -6 0 -17 8 -25 13 -13 18 -12 39 5 19 16 21 20 7 21
-9 0 -20 -4 -23 -10 -10 -16 -28 -12 -21 5 6 17 0 20 -10 4z"/>
<path d="M1156 1725 c8 -13 13 -28 11 -32 -3 -5 1 -17 10 -28 13 -19 14 -18 7
10 -12 50 -23 75 -34 75 -6 0 -3 -11 6 -25z"/>
<path d="M1690 1729 c0 -6 8 -8 20 -4 15 5 21 1 25 -17 8 -33 26 -150 26 -170
0 -22 -7 -23 99 7 49 14 98 25 109 25 12 0 21 4 21 9 0 14 -43 21 -57 9 -8 -6
-16 -8 -20 -5 -3 4 -12 2 -20 -5 -7 -6 -16 -8 -20 -4 -3 3 -1 6 5 6 7 0 12 7
12 16 0 8 5 12 10 9 6 -3 10 1 10 9 0 21 -17 29 -24 11 -3 -8 -12 -15 -21 -15
-8 0 -15 -4 -15 -10 0 -5 -6 -10 -14 -10 -8 0 -17 -8 -21 -17 -6 -16 -10 -14
-31 12 -13 17 -24 35 -24 40 0 6 5 3 11 -5 15 -21 2 36 -17 74 -11 24 -12 31
-2 38 8 5 -2 8 -24 8 -21 0 -38 -5 -38 -11z"/>
<path d="M406 1693 c4 -16 11 -31 17 -34 5 -4 7 -18 3 -32 -9 -38 2 -57 34
-57 31 0 47 -14 29 -26 -6 -3 -15 -1 -19 6 -11 18 -61 8 -77 -17 -17 -25 -38
-17 182 -68 66 -15 125 -30 132 -32 7 -3 16 17 23 53 13 61 6 76 -30 67 -29
-8 -34 16 -5 27 15 6 23 15 19 21 -5 8 -9 8 -14 -1 -6 -9 -9 -9 -13 1 -4 10
-6 9 -6 -3 -1 -10 -5 -18 -11 -18 -5 0 -10 -14 -10 -31 0 -16 -4 -28 -9 -25
-4 3 -6 -5 -3 -19 3 -19 0 -24 -17 -22 -21 1 -21 8 -4 70 3 11 -1 17 -12 17
-12 0 -16 -6 -12 -20 3 -11 2 -18 -3 -15 -4 2 -10 -10 -14 -27 l-6 -32 -25 34
c-15 20 -25 28 -25 18 0 -8 -7 -22 -16 -29 -15 -13 -16 -11 -11 21 17 91 18
125 2 73 -3 -10 -10 -10 -30 -1 -14 6 -24 17 -21 24 2 6 -1 22 -8 35 -7 13
-13 26 -13 29 -1 3 -5 13 -8 23 -11 28 -26 20 -19 -10z"/>
<path d="M917 1703 c-10 -9 -8 -46 3 -63 7 -12 11 -10 18 10 11 29 5 41 -9 20
-7 -11 -8 -7 -3 13 6 27 3 33 -9 20z"/>
<path d="M580 1678 c-24 -10 -24 -10 -5 -18 28 -12 37 -12 29 1 -3 6 0 15 7
20 19 12 0 10 -31 -3z"/>
<path d="M0 1665 c0 -10 8 -15 23 -13 29 3 107 -12 107 -21 0 -4 8 -7 18 -7 9
0 33 -4 52 -7 25 -5 29 -4 15 2 -17 8 -18 10 -2 10 9 1 17 5 17 10 0 4 -22 6
-50 4 -32 -2 -50 0 -50 7 0 7 -8 9 -21 5 -14 -5 -19 -3 -15 3 4 7 -10 9 -39 7
-24 -1 -42 1 -39 6 3 5 0 9 -5 9 -6 0 -11 -7 -11 -15z"/>
<path d="M1380 1630 c0 -3 4 -20 9 -37 l9 -32 -56 -16 c-113 -32 -106 -22 -67
-85 19 -30 36 -59 38 -64 1 -5 13 -5 26 -1 l23 7 -23 12 c-28 14 -63 71 -55
91 3 8 17 15 31 15 14 0 33 4 43 9 9 5 25 12 35 15 21 6 21 32 2 66 -8 14 -14
23 -15 20z"/>
<path d="M2040 1580 c-25 -16 -51 -30 -57 -30 -7 0 -13 -1 -13 -2 0 -2 27 -93
59 -203 l58 -200 0 160 c-1 139 -1 147 -6 60 l-6 -100 -16 55 c-10 30 -20 73
-24 95 -4 22 -10 45 -15 50 -12 16 -20 59 -12 71 4 6 26 21 50 33 23 12 42 26
42 31 0 15 -11 11 -60 -20z"/>
<path d="M540 1580 c0 -11 7 -20 15 -20 8 0 15 -8 16 -17 0 -15 2 -15 9 2 13
29 12 35 -5 35 -8 0 -15 5 -15 10 0 6 -4 10 -10 10 -5 0 -10 -9 -10 -20z"/>
<path d="M866 1575 c-3 -8 -17 -17 -32 -21 -25 -7 -26 -9 -20 -59 6 -51 6 -52
-19 -47 -27 5 -34 22 -9 22 8 0 12 5 9 10 -4 6 -10 8 -15 5 -5 -3 -11 -1 -15
5 -3 5 -1 10 5 10 6 0 8 5 5 10 -4 6 -11 7 -17 4 -10 -6 -5 -85 7 -104 2 -4
43 4 89 18 47 14 83 29 80 33 -2 4 6 15 18 23 22 16 22 16 -10 16 -18 0 -31
-4 -28 -9 4 -5 -12 -7 -35 -5 -72 7 -76 19 -19 59 22 15 37 31 34 36 -8 14
-21 11 -28 -6z m34 -103 c0 -11 -41 -34 -48 -27 -4 4 2 13 12 21 22 15 36 18
36 6z"/>
<path d="M967 1580 c6 -7 9 -18 7 -25 -7 -16 23 -28 43 -17 15 9 5 18 -47 47
-12 6 -12 5 -3 -5z"/>
<path d="M6 1561 c15 -13 73 -31 87 -25 7 2 23 -5 35 -16 12 -11 22 -16 22
-10 0 7 12 9 30 6 17 -2 30 -1 30 3 0 4 -42 17 -94 29 -104 24 -125 27 -110
13z"/>
<path d="M1420 1492 c0 -40 4 -72 9 -72 8 0 3 130 -5 139 -2 2 -4 -28 -4 -67z"/>
<path d="M1919 1533 c-9 -2 -22 -16 -28 -31 -12 -25 -14 -25 -26 -9 -12 16
-21 15 -156 -23 -79 -23 -167 -48 -196 -56 -39 -11 -51 -18 -47 -29 4 -8 1
-15 -5 -15 -6 0 -11 6 -11 14 0 12 -7 12 -42 1 -24 -7 -43 -17 -42 -24 2 -27
5 -31 20 -31 14 0 14 3 4 15 -7 9 -8 15 -2 15 5 0 12 -7 16 -15 4 -10 18 -15
48 -14 l43 2 -35 7 c-36 8 -32 14 7 10 17 -1 21 3 17 14 -5 12 0 16 21 16 23
0 26 -2 15 -15 -12 -14 -7 -19 13 -16 5 1 6 -3 2 -9 -3 -5 -12 -10 -20 -10 -7
0 -15 -5 -17 -11 -2 -6 -15 -13 -28 -14 -40 -4 -41 -5 -35 -15 4 -6 -5 -7 -24
-4 l-30 6 16 -51 c17 -50 26 -61 38 -41 3 6 1 10 -6 10 -25 0 7 18 70 38 62
21 81 21 81 1 0 -6 -9 -8 -19 -4 -11 3 -23 0 -27 -6 -4 -7 -3 -9 4 -5 6 3 13
2 17 -4 11 -17 24 -11 31 15 3 14 10 25 15 25 8 0 5 -33 -6 -49 -3 -5 -1 -12
5 -16 5 -3 10 3 10 15 0 12 4 19 9 16 4 -3 6 6 3 20 -2 13 -13 29 -24 35 -15
8 -19 8 -14 0 5 -7 -8 -11 -37 -11 -32 0 -47 -5 -51 -16 -4 -10 -13 -13 -26
-9 -12 4 -20 2 -20 -5 0 -6 -4 -8 -10 -5 -18 11 -10 23 19 30 16 3 35 13 42
21 13 16 54 20 44 4 -9 -15 4 -12 21 5 9 8 27 15 41 15 l25 0 -23 19 c-20 16
-22 22 -12 52 6 19 11 26 12 16 1 -13 6 -17 20 -12 10 3 24 -1 31 -10 7 -8 20
-15 28 -15 12 0 13 -3 4 -12 -15 -15 -16 -62 -1 -52 8 5 8 1 0 -14 -6 -11 -8
-29 -5 -39 3 -10 -2 -7 -10 7 -8 14 -15 40 -16 58 0 17 -4 32 -10 32 -5 0 -10
-8 -10 -18 0 -10 -5 -23 -12 -30 -9 -9 -9 -12 0 -12 7 0 12 -10 12 -22 0 -12
3 -19 6 -16 3 4 22 -26 43 -65 26 -50 35 -76 28 -85 -14 -18 -2 -25 22 -12 17
9 21 8 21 -5 0 -8 7 -15 15 -15 17 0 18 4 6 28 -15 29 -29 102 -18 95 5 -3 2
5 -6 18 -17 25 -29 136 -17 144 5 3 20 -1 35 -9 24 -12 25 -15 9 -19 -11 -2
-6 -3 10 -1 17 3 36 -2 46 -11 10 -9 25 -13 34 -9 12 5 3 13 -35 30 -28 13
-57 24 -64 24 -10 0 -25 20 -25 35 0 1 13 5 29 8 29 6 30 7 15 36 -11 22 -20
28 -37 25 -20 -4 -21 -4 -2 5 11 4 25 5 30 2 24 -17 115 1 115 22 0 7 7 3 16
-8 15 -19 15 -19 10 7 -3 20 -1 25 10 21 8 -3 14 1 14 11 0 16 -3 17 -31 9z
m-189 -139 c0 -19 -5 -34 -11 -34 -5 0 -7 5 -4 10 3 6 -1 13 -9 16 -9 3 -16
16 -16 29 0 18 4 22 20 18 15 -4 20 -14 20 -39z m-166 10 c9 -3 16 -10 16 -14
0 -7 -20 -8 -62 -1 -5 0 -8 6 -8 11 0 11 30 13 54 4z m186 -274 c0 -8 -11 5
-25 29 -14 23 -25 48 -25 55 1 16 50 -66 50 -84z"/>
<path d="M220 1507 c0 -10 8 -13 26 -9 19 3 30 0 36 -13 8 -14 12 -15 18 -4 7
10 16 10 44 2 20 -6 36 -8 36 -4 0 4 -26 13 -57 20 -32 7 -68 15 -80 18 -16 4
-23 1 -23 -10z"/>
<path d="M1180 1498 c-48 -13 -57 -24 -17 -22 17 1 33 3 35 4 1 1 7 3 14 4 6
0 13 7 16 14 4 14 0 14 -48 0z"/>
<path d="M130 1460 c0 -16 5 -30 10 -30 6 0 10 14 10 30 0 17 -4 30 -10 30 -5
0 -10 -13 -10 -30z"/>
<path d="M1943 1476 c6 -15 -19 -30 -34 -20 -5 3 -9 0 -9 -5 0 -6 3 -11 8 -12
4 0 20 -2 35 -4 22 -3 27 0 23 11 -3 9 -6 22 -6 30 0 8 -5 14 -11 14 -6 0 -9
-6 -6 -14z"/>
<path d="M2959 1445 c-2 -22 -1 -74 2 -115 l6 -75 3 60 c1 33 4 76 5 95 1 19
-1 44 -5 55 -6 15 -8 11 -11 -20z"/>
<path d="M1035 1458 c-16 -6 -92 -45 -167 -87 -111 -61 -137 -80 -135 -96 1
-11 9 -20 17 -21 8 0 31 -8 51 -17 37 -16 113 -17 209 -2 54 9 100 39 100 66
0 10 7 19 15 19 17 0 39 46 29 61 -3 5 -12 9 -20 9 -8 0 -14 9 -14 21 0 31
-18 59 -38 58 -9 0 -30 -5 -47 -11z m55 -62 l21 -35 -23 -35 c-29 -45 -60 -56
-173 -63 -74 -5 -93 -3 -103 10 -11 13 -9 18 10 31 12 9 29 16 37 16 7 0 19 6
25 14 11 15 160 96 176 96 4 0 18 -15 30 -34z"/>
<path d="M2857 1448 c19 -18 24 -19 38 -8 13 11 18 10 30 -6 14 -18 14 -18 15
9 0 26 -2 27 -52 27 l-52 0 21 -22z"/>
<path d="M338 1412 c-73 -26 -125 -49 -121 -55 3 -6 1 -7 -5 -3 -7 4 -49 -5
-95 -20 l-83 -27 55 -158 c30 -87 56 -157 58 -155 5 5 -28 136 -53 211 -24 74
-22 88 19 101 12 4 34 15 49 26 27 18 27 18 38 -1 9 -18 8 -20 -7 -14 -12 4
-9 -1 7 -14 13 -11 30 -18 37 -16 9 4 11 0 7 -11 -4 -12 0 -16 16 -16 14 0 19
4 14 13 -5 8 -4 9 4 2 6 -5 12 -19 14 -30 2 -14 -2 -19 -14 -17 -10 2 -18 -2
-18 -8 0 -6 11 -10 24 -8 26 3 59 -19 50 -34 -3 -5 -16 -2 -30 6 -18 13 -22
13 -18 2 4 -9 -3 -13 -20 -13 -21 0 -24 3 -21 28 5 40 -11 37 -20 -3 -4 -18
-9 -27 -12 -20 -2 6 -10 9 -16 5 -7 -4 -6 1 2 10 16 20 24 67 11 67 -5 0 -15
3 -23 6 -10 3 -20 -3 -27 -17 -11 -20 -10 -21 9 -16 18 4 19 3 9 -16 -9 -17
-7 -24 12 -39 12 -10 33 -18 47 -18 13 0 21 -4 18 -10 -3 -5 -2 -10 4 -10 5 0
12 6 14 13 3 7 6 5 6 -5 1 -10 -4 -18 -9 -18 -6 0 -16 -11 -22 -25 -6 -14 -20
-25 -30 -25 -16 0 -53 -14 -66 -25 -2 -2 2 -13 8 -25 9 -17 14 -19 20 -10 7
11 11 10 24 -3 22 -22 21 -24 -20 -37 -19 -7 -33 -17 -30 -23 2 -7 22 -63 42
-124 21 -62 41 -113 45 -113 4 0 58 18 121 41 62 23 191 67 287 99 95 33 175
61 177 63 2 2 -2 18 -9 36 -13 31 -27 32 -27 1 0 -17 -19 -29 -80 -50 -19 -7
-44 -16 -55 -21 -79 -33 -101 -42 -110 -44 -5 0 -35 -13 -65 -28 -30 -15 -61
-27 -68 -27 -8 0 -28 -6 -45 -14 -28 -12 -107 -36 -119 -36 -2 0 -4 9 -4 20 0
13 9 21 26 24 59 12 87 17 125 22 50 7 95 24 95 35 0 5 7 9 15 9 8 0 15 7 15
15 0 8 -5 15 -11 15 -5 0 -8 -4 -5 -9 3 -4 -6 -6 -19 -3 -20 3 -24 1 -19 -12
5 -12 2 -15 -10 -10 -9 3 -16 10 -16 15 0 5 -4 9 -10 9 -5 0 -7 -7 -4 -15 4
-11 2 -13 -9 -9 -8 3 -26 -1 -39 -9 -13 -7 -34 -13 -48 -13 -14 1 -28 -3 -32
-8 -9 -13 -70 -17 -62 -5 3 5 10 7 15 4 5 -4 9 1 9 9 0 8 9 20 20 26 11 6 18
16 14 21 -4 7 -10 7 -17 0 -17 -17 -25 -13 -41 17 -8 15 -15 22 -16 15 0 -6
-9 -9 -20 -6 -28 7 -16 21 30 33 39 10 55 30 25 30 -8 0 -15 6 -16 13 -5 70
14 134 32 106 5 -8 9 -12 10 -9 0 3 3 23 5 45 5 41 23 62 36 42 6 -9 8 -8 8 2
0 7 6 11 15 7 8 -3 15 -3 15 0 0 13 -25 50 -40 61 -27 19 -32 53 -9 53 10 0
19 5 19 10 0 6 3 9 8 9 28 -5 51 5 62 26 16 30 9 40 -19 26 -13 -7 -18 -18
-15 -29 5 -14 4 -15 -5 -2 -9 13 -11 12 -11 -4 0 -16 -3 -17 -12 -8 -9 9 -7
17 10 35 25 27 28 37 9 37 -14 0 -37 -40 -37 -65 0 -8 -4 -15 -10 -15 -10 0
-3 54 11 81 5 9 25 20 46 24 20 4 54 16 76 26 30 16 42 18 53 8 18 -15 18 -39
-1 -40 -8 -1 -19 -3 -25 -4 -5 -1 -13 -3 -17 -4 -5 -1 6 -9 22 -19 28 -15 28
-17 8 -20 -36 -5 -49 -29 -28 -52 10 -11 21 -18 25 -15 16 10 70 14 70 6 0 -6
-5 -21 -11 -35 -9 -19 -8 -31 5 -57 9 -17 16 -40 16 -49 0 -9 3 -19 6 -22 9
-9 44 3 38 13 -3 5 -9 7 -14 4 -5 -3 -11 -1 -15 5 -3 5 0 10 9 10 8 0 16 6 19
13 3 10 23 -38 31 -76 3 -12 7 -22 39 -100 l16 -37 33 20 c18 11 43 20 56 20
26 0 27 3 6 63 -17 50 -24 56 -44 32 -7 -8 -8 -15 -2 -15 5 0 12 -8 15 -17 2
-10 8 -26 12 -35 4 -10 3 -18 -3 -18 -6 0 -13 14 -17 31 -7 30 -17 32 -21 4
-1 -8 1 -13 6 -10 4 3 10 -4 13 -14 3 -12 -1 -22 -10 -25 -22 -9 -25 -7 -20 7
2 6 -2 19 -10 28 -12 14 -12 19 1 32 14 14 13 17 -15 29 -33 14 -61 60 -52 85
4 10 2 14 -4 10 -13 -8 -12 25 1 34 4 4 3 10 -3 13 -6 4 -11 2 -11 -4 0 -29
-18 5 -24 45 -7 47 -23 66 -36 45 -4 -7 -13 -9 -19 -6 -6 4 -11 1 -12 -6 0 -7
-4 -4 -9 7 -5 11 -9 15 -9 8 -1 -6 -10 -11 -20 -10 -18 1 -18 3 5 24 27 25 30
38 12 47 -7 3 0 4 15 1 16 -3 26 -2 23 3 -2 4 -1 14 5 22 7 12 9 10 9 -7 0
-27 17 -31 22 -6 3 15 4 15 21 -1 15 -15 17 -15 17 -2 0 9 5 16 11 16 6 0 9
-7 6 -15 -4 -8 -2 -17 4 -20 5 -4 3 -13 -6 -21 -21 -21 -19 -33 5 -31 11 1 20
7 20 14 0 7 5 13 11 13 14 0 3 50 -14 67 -11 11 -156 44 -181 42 -6 -1 -68
-22 -138 -47z m-43 -69 c-3 -21 -11 -41 -16 -46 -5 -4 -7 -4 -5 -1 3 3 0 18
-5 32 -12 31 -5 52 17 52 13 0 15 -7 9 -37z m282 -73 c-3 -11 -1 -20 4 -20 4
0 5 -7 2 -17 -4 -10 -2 -14 4 -10 7 5 9 0 6 -13 -5 -20 -6 -20 -22 -3 -18 18
-17 83 1 83 6 0 8 -9 5 -20z m-327 -426 c0 -8 -6 -14 -14 -14 -16 0 -29 27
-20 41 8 13 34 -9 34 -27z"/>
<path d="M731 1421 c-1 -9 -9 -12 -25 -9 -16 3 -23 1 -19 -8 4 -12 64 -26 62
-15 -2 16 -18 44 -18 32z"/>
<path d="M1962 1403 c-9 -17 -9 -22 4 -27 8 -3 13 -9 11 -13 -3 -5 3 -24 14
-43 19 -35 19 -35 12 -5 -3 17 -11 48 -18 70 -11 38 -12 39 -23 18z"/>
<path d="M1238 1387 c-15 -12 -34 -38 -42 -57 -8 -19 -15 -27 -15 -18 -1 12
-6 15 -17 11 -11 -4 -12 -9 -5 -16 6 -6 11 -19 11 -29 0 -25 23 -22 59 8 47
39 73 81 66 104 -8 26 -24 25 -57 -3z"/>
<path d="M2637 1388 c-22 -8 -26 -13 -16 -24 19 -23 44 -17 44 11 0 14 0 25 0
24 0 0 -13 -5 -28 -11z"/>
<path d="M2931 1385 c-2 -11 -5 -32 -6 -48 -1 -15 -5 -30 -8 -34 -4 -3 -2 -12
4 -19 7 -8 7 -14 -1 -19 -5 -3 -10 0 -10 7 0 10 -2 10 -8 1 -5 -7 -46 -18 -93
-23 -90 -12 -168 -35 -184 -56 -11 -14 -134 -22 -154 -10 -6 4 -10 23 -9 42 1
19 -3 39 -10 46 -9 9 -12 4 -12 -25 0 -42 -3 -43 -54 -22 -29 12 -36 20 -31
35 3 10 1 21 -5 25 -6 4 -10 -4 -10 -19 0 -38 -23 -23 -41 27 -9 23 -22 43
-30 45 -9 2 -29 -22 -49 -58 -25 -42 -39 -58 -50 -54 -18 6 -20 7 -41 5 -25
-2 -24 -164 1 -237 19 -56 19 -56 0 -61 -14 -4 -20 -14 -20 -34 l0 -29 415 0
415 0 0 140 c0 105 -3 140 -12 140 -10 0 -10 2 0 8 9 7 12 39 9 128 -1 65 -4
110 -6 99z m-650 -145 c5 0 9 -9 9 -20 0 -15 9 -22 30 -26 25 -6 30 -11 30
-36 0 -16 -6 -31 -15 -34 -12 -5 -12 -8 0 -20 20 -20 22 -18 29 30 6 41 9 44
34 42 14 -2 28 -9 30 -16 4 -10 6 -10 12 1 6 9 15 4 35 -19 15 -18 31 -30 36
-26 5 3 9 0 9 -6 0 -6 -10 -15 -22 -19 l-23 -9 25 -10 c23 -9 26 -7 31 20 4
16 9 32 12 35 9 8 20 -45 14 -61 -4 -11 -1 -13 10 -9 11 4 14 15 10 39 -6 36
9 56 40 54 10 0 51 -1 91 -3 39 -2 72 1 72 6 0 6 21 7 48 4 26 -3 41 -3 35 0
-18 7 -16 26 2 19 11 -4 15 1 15 19 0 23 -4 25 -47 26 l-48 1 50 14 c28 7 52
14 55 14 3 0 5 -27 5 -60 1 -65 -4 -70 -65 -67 -69 3 -171 -4 -166 -12 3 -4
48 -7 101 -5 89 3 95 2 95 -16 0 -11 -4 -20 -10 -20 -5 0 -10 5 -10 10 0 6 -7
10 -15 10 -29 0 -15 -26 15 -28 28 -2 36 8 31 41 0 4 3 7 9 7 10 0 15 -25 10
-45 -7 -25 1 -49 22 -69 l23 -21 -50 -6 c-36 -4 -41 -6 -17 -7 27 -2 32 -6 32
-26 0 -18 -7 -25 -26 -29 -37 -7 -322 1 -336 9 -6 4 -8 3 -5 -3 8 -12 -91 -12
-110 0 -6 4 -14 3 -18 -3 -9 -14 -213 -6 -228 9 -8 8 -8 11 2 11 10 0 10 4 3
13 -6 6 -13 30 -17 52 -4 22 -13 46 -19 54 -9 12 -7 13 9 7 11 -4 43 -9 72
-11 38 -4 52 -1 57 10 4 12 -6 15 -59 15 -60 0 -65 2 -65 21 0 12 -8 28 -17
35 -17 12 -16 13 5 14 17 0 22 6 22 25 0 29 34 47 69 38 13 -3 21 -1 21 6 0 7
-4 9 -10 6 -5 -3 -10 4 -10 15 0 16 4 20 16 16 9 -3 20 -6 25 -6z m569 -40 c0
-5 -6 -10 -14 -10 -7 0 -27 -7 -42 -15 -33 -17 -164 -21 -164 -5 0 6 15 10 34
10 19 0 37 4 40 9 3 5 26 6 51 3 30 -3 45 -1 45 7 0 6 11 11 25 11 14 0 25 -4
25 -10z"/>
<path d="M2230 1130 c0 -13 7 -20 20 -20 24 0 27 25 4 34 -23 9 -24 8 -24 -14z"/>
<path d="M2601 1078 c5 -17 6 -34 3 -37 -3 -3 -35 -5 -71 -4 -36 0 -59 -3 -52
-8 7 -4 61 -8 120 -8 86 0 109 3 113 15 4 10 2 12 -6 8 -6 -4 -26 -8 -45 -9
-25 -1 -33 3 -33 16 0 10 -3 24 -6 32 -3 10 2 17 13 20 10 3 5 5 -14 6 -31 1
-31 0 -22 -31z"/>
<path d="M2432 1090 c2 -10 -5 -15 -19 -15 -11 0 -25 -4 -30 -8 -4 -5 -1 -8 7
-7 31 5 38 0 32 -22 -3 -13 -10 -26 -16 -30 -7 -5 -4 -8 7 -8 15 0 21 20 16
56 0 4 5 10 13 15 11 7 11 10 0 21 -11 11 -13 10 -10 -2z"/>
<path d="M2325 1069 c-16 -4 -25 -7 -20 -8 6 -1 4 -5 -3 -9 -8 -6 2 -9 27 -10
29 -1 39 2 37 13 -3 21 -7 22 -41 14z"/>
<path d="M2816 1005 c5 -12 64 -18 64 -6 0 5 -15 11 -34 13 -21 2 -32 0 -30
-7z"/>
<path d="M2561 986 c2 -2 47 -6 99 -9 68 -4 81 -3 45 3 -52 9 -152 13 -144 6z"/>
<path d="M705 1355 c8 -37 25 -57 25 -29 0 11 -7 29 -16 40 -15 18 -15 18 -9
-11z"/>
<path d="M400 1301 c0 -5 -9 -13 -20 -16 -11 -4 -18 -10 -15 -15 3 -4 -2 -11
-11 -14 -8 -3 -12 -11 -9 -17 4 -5 9 -8 12 -5 3 3 21 -1 40 -9 53 -22 73 -18
31 7 -50 29 -56 48 -17 48 27 0 29 2 15 15 -17 17 -26 19 -26 6z"/>
<path d="M620 1286 c0 -7 7 -19 15 -26 8 -7 15 -18 15 -25 0 -12 21 -25 41
-25 17 0 9 18 -11 23 -11 3 -19 9 -18 14 3 12 -21 53 -32 53 -6 0 -10 -6 -10
-14z"/>
<path d="M1925 1280 c3 -5 13 -10 21 -10 8 0 14 -7 14 -15 0 -18 5 -18 31 -5
15 9 19 7 19 -5 0 -10 -5 -14 -12 -10 -7 4 -6 1 2 -7 17 -15 20 -40 5 -50 -6
-4 -2 -8 8 -8 14 0 18 -6 15 -27 -2 -19 2 -27 15 -29 21 -3 20 0 -9 102 -10
37 -22 54 -40 63 -31 14 -77 15 -69 1z"/>
<path d="M1890 1260 c-8 -6 -12 -10 -8 -10 4 0 0 -9 -9 -20 -13 -14 -20 -17
-30 -8 -11 8 -12 7 -7 -6 4 -10 12 -15 20 -12 7 3 15 0 18 -7 3 -9 5 -9 5 0 1
7 8 10 19 6 14 -5 15 -3 5 8 -18 19 -16 29 6 29 11 0 23 6 27 13 4 6 4 9 -1 5
-4 -4 -13 -4 -19 2 -7 5 -17 5 -26 0z"/>
<path d="M2960 1200 c0 -29 3 -50 7 -46 7 7 5 87 -3 95 -2 2 -4 -20 -4 -49z"/>
<path d="M750 1231 c0 -5 6 -12 13 -14 7 -3 8 -6 1 -6 -7 -1 8 -58 37 -142 27
-77 49 -147 49 -154 0 -20 92 -176 111 -188 9 -6 23 -7 32 -4 14 5 14 9 2 35
-8 15 -18 52 -22 82 -5 29 -13 55 -20 57 -7 3 -9 -3 -6 -16 3 -12 1 -21 -4
-21 -13 0 -38 47 -64 116 -12 32 -24 62 -28 66 -3 4 -4 30 -2 58 3 44 6 51 21
47 13 -3 17 0 13 10 -3 8 -11 12 -18 9 -13 -5 -95 29 -95 40 0 3 7 4 15 0 23
-8 18 0 -10 18 -14 9 -25 12 -25 7z"/>
<path d="M1200 1220 c8 -5 12 -12 8 -15 -3 -4 -2 -21 4 -38 6 -18 11 -43 12
-56 0 -13 7 -26 14 -29 9 -3 11 8 7 44 -7 54 -30 104 -48 104 -8 0 -7 -4 3
-10z"/>
<path d="M1795 1219 c-8 -12 1 -24 18 -24 7 -1 11 -6 10 -13 -2 -7 4 -12 12
-12 13 0 11 6 -7 30 -25 34 -24 34 -33 19z"/>
<path d="M1915 1220 c5 -8 1 -18 -11 -28 -18 -14 -18 -14 4 -9 18 4 22 2 18
-9 -3 -8 -2 -14 3 -14 16 0 20 13 10 31 -6 13 -6 19 1 19 5 0 10 -7 10 -15 0
-20 7 -19 32 5 l21 19 -29 -1 c-16 -1 -38 2 -48 7 -15 6 -17 5 -11 -5z"/>
<path d="M456 1195 c-37 -16 -45 -23 -32 -28 9 -4 28 0 41 9 14 9 31 14 40 11
19 -8 26 5 11 19 -8 7 -25 4 -60 -11z"/>
<path d="M707 1205 c-15 -11 -16 -17 -8 -33 9 -16 7 -24 -5 -36 -20 -20 -11
-20 27 -1 25 13 28 20 23 43 -9 38 -16 43 -37 27z"/>
<path d="M1125 1187 c-5 -18 -3 -33 4 -40 17 -17 23 -2 13 34 l-9 34 -8 -28z"/>
<path d="M1567 1194 c3 -7 0 -14 -7 -14 -6 0 -9 -4 -6 -9 3 -5 -2 -8 -11 -7
-8 0 -23 -12 -32 -28 -19 -33 -49 -50 -38 -22 4 10 1 16 -9 16 -11 0 -12 4 -5
18 5 9 10 21 10 27 1 5 14 8 30 7 16 -2 32 2 36 8 9 14 -62 11 -90 -4 -11 -6
-22 -12 -24 -13 -4 -2 41 -156 48 -164 3 -3 14 2 24 13 16 17 16 18 -5 18 -14
0 -18 4 -12 9 9 10 54 20 112 25 18 2 36 7 40 11 4 5 1 5 -5 1 -13 -7 -17 4
-14 32 1 6 -3 12 -9 12 -5 0 -10 -7 -10 -16 0 -8 -4 -12 -10 -9 -5 3 -10 -2
-10 -11 0 -27 -18 -4 -30 36 -9 31 -8 33 6 18 15 -15 18 -14 35 3 20 20 17 44
-6 53 -9 3 -12 0 -8 -10z"/>
<path d="M1630 1170 c0 -14 -3 -35 -6 -47 -5 -17 -2 -23 10 -23 10 0 14 5 11
10 -3 6 1 10 9 10 8 0 17 4 20 9 4 5 -4 7 -16 3 -13 -3 -19 -1 -15 6 4 5 3 21
-2 34 l-10 23 -1 -25z"/>
<path d="M1796 1130 c15 -27 31 -50 35 -50 5 0 -5 23 -22 50 -17 28 -33 50
-35 50 -3 0 7 -22 22 -50z"/>
<path d="M461 1145 c-23 -14 -49 -25 -57 -25 -8 0 -14 -4 -14 -10 0 -20 -16
-9 -27 18 l-11 27 -1 -28 c-1 -16 -5 -26 -11 -22 -5 3 -10 2 -10 -4 0 -6 -6
-8 -14 -5 -11 4 -13 0 -9 -16 4 -16 9 -18 17 -10 8 8 16 1 28 -27 13 -29 16
-32 12 -10 -8 35 12 63 33 45 12 -10 14 -8 11 8 -2 12 3 19 12 19 8 0 14 -6
13 -12 -2 -7 3 -13 11 -13 9 0 13 8 9 23 -4 20 -3 21 10 5 20 -25 25 -22 19 7
-5 30 13 33 28 5 21 -40 -5 -70 -57 -63 -28 4 -33 2 -33 -15 0 -11 -6 -22 -12
-25 -9 -3 -10 -8 -3 -16 8 -7 20 -8 40 -1 17 6 49 15 73 20 23 6 42 15 42 21
0 6 -5 7 -11 3 -6 -4 -27 -10 -45 -14 -26 -6 -34 -5 -34 6 0 8 3 13 8 12 13
-3 72 13 72 20 0 14 -34 102 -39 102 -4 0 -26 -11 -50 -25z"/>
<path d="M1885 1160 c-4 -6 -11 -8 -16 -5 -5 4 -19 -1 -31 -10 l-23 -17 30 6
c17 4 36 7 43 8 6 1 12 7 12 15 0 16 -6 17 -15 3z"/>
<path d="M166 1135 c-9 -25 -8 -32 10 -39 8 -3 13 -2 10 3 -7 10 22 24 34 16
4 -3 10 2 14 10 3 8 0 15 -7 15 -7 0 -22 3 -33 6 -14 4 -23 0 -28 -11z"/>
<path d="M1927 1134 c-10 -10 2 -24 19 -24 8 0 13 4 9 9 -3 5 5 12 17 14 18 3
16 5 -8 6 -17 0 -34 -2 -37 -5z"/>
<path d="M910 1109 c7 -13 8 -25 2 -32 -5 -7 -6 -21 -1 -32 7 -18 8 -17 8 7 1
14 6 28 12 30 13 4 1 35 -17 42 -12 4 -12 2 -4 -15z"/>
<path d="M1274 1118 c-4 -7 -8 -39 -9 -73 -1 -34 -9 -74 -19 -92 -16 -32 -33
-46 -23 -20 15 40 17 57 8 57 -16 0 -31 -123 -16 -138 1 -1 26 12 54 29 28 18
49 34 46 37 -3 3 -11 0 -17 -6 -7 -7 -16 -12 -21 -12 -13 0 -1 84 12 88 6 2 9
8 5 13 -3 5 0 9 6 9 6 0 8 5 5 10 -4 6 -11 8 -16 4 -13 -7 -7 19 6 28 6 5 5 8
-4 8 -10 0 -11 3 -2 14 8 9 8 16 2 20 -6 4 -8 13 -4 21 6 18 -3 20 -13 3z"/>
<path d="M1381 1058 c-7 -35 -21 -80 -31 -100 -10 -21 -16 -38 -14 -38 2 0 27
14 54 31 34 21 49 36 46 46 -3 7 -13 38 -22 68 -8 30 -16 55 -18 55 -1 0 -8
-28 -15 -62z"/>
<path d="M66 1093 c4 -10 8 -28 8 -40 1 -12 5 -18 10 -13 11 11 -2 70 -16 70
-6 0 -7 -7 -2 -17z"/>
<path d="M2045 1092 c-5 -4 -10 -14 -10 -22 0 -8 -6 -14 -12 -12 -7 1 -13 -3
-13 -9 0 -6 7 -8 16 -5 9 3 24 6 35 6 10 0 19 5 19 11 0 5 -4 8 -9 5 -5 -4 -7
3 -4 14 5 20 -4 26 -22 12z"/>
<path d="M1110 1069 c0 -5 10 -14 23 -19 12 -5 16 -9 10 -9 -7 -1 -13 -6 -13
-12 0 -5 5 -7 10 -4 6 3 10 -4 10 -17 0 -13 8 -32 16 -43 16 -19 16 -19 10 10
-4 17 -10 41 -12 55 -5 24 -54 59 -54 39z"/>
<path d="M1914 1059 c0 -11 7 -19 14 -19 9 0 12 -6 8 -16 -4 -11 -1 -14 11
-12 23 4 30 38 9 38 -9 0 -16 4 -16 9 0 5 -6 11 -13 14 -8 3 -13 -3 -13 -14z"/>
<path d="M580 1047 c0 -8 9 -22 20 -32 27 -24 25 -35 -5 -35 -14 0 -24 -3 -24
-7 3 -21 -2 -33 -16 -33 -22 0 -18 -17 5 -23 14 -4 20 0 20 11 0 15 2 15 10 2
11 -18 -7 -32 -33 -24 -10 3 -20 -1 -23 -11 -11 -27 2 -27 56 0 39 20 50 29
41 38 -14 14 -14 27 -1 27 6 0 9 -6 8 -12 -2 -7 7 -14 20 -16 l24 -4 -21 21
c-12 12 -27 41 -33 66 -9 32 -17 45 -30 45 -10 0 -18 -6 -18 -13z"/>
<path d="M1861 1038 c-11 -31 -3 -52 14 -38 9 8 15 7 18 -2 4 -10 8 -10 16 2
14 19 14 33 0 25 -6 -4 -13 2 -16 14 -7 27 -22 27 -32 -1z"/>
<path d="M270 1043 c1 -5 7 -19 15 -33 9 -17 10 -29 3 -37 -8 -9 -1 -11 27 -8
33 5 36 3 25 -10 -7 -8 -20 -15 -30 -15 -12 0 -17 -9 -18 -30 0 -19 4 -30 13
-30 7 0 22 -3 32 -6 14 -4 13 -1 -6 15 l-24 21 42 39 c41 38 46 60 9 40 -22
-12 -61 -2 -55 14 2 7 10 12 17 12 7 0 15 6 18 13 3 11 0 12 -16 3 -27 -15
-32 -14 -32 4 0 8 -4 15 -10 15 -5 0 -10 -3 -10 -7z"/>
<path d="M1650 1015 c0 -9 -6 -18 -14 -21 -21 -8 -8 -34 18 -34 15 0 17 3 8 8
-9 7 -10 15 -3 35 7 17 7 27 1 27 -6 0 -10 -7 -10 -15z"/>
<path d="M2058 1023 c7 -2 17 -14 23 -25 10 -18 9 -20 -5 -15 -10 4 -23 -1
-33 -13 -19 -21 -39 -28 -27 -8 4 6 3 8 -4 4 -5 -3 -12 -2 -14 4 -2 6 -8 6
-18 0 -13 -8 -12 -10 3 -10 9 0 17 -4 17 -10 0 -6 -10 -6 -27 1 -15 6 -25 7
-21 4 4 -4 2 -13 -5 -19 -15 -17 -55 -8 -62 15 -8 23 -21 25 -29 3 -4 -9 -2
-13 5 -8 7 4 10 1 7 -7 -10 -29 18 -40 67 -28 25 6 45 15 45 19 0 4 6 7 13 6
6 0 35 5 63 12 l51 13 -11 35 c-8 24 -17 34 -31 33 -11 0 -14 -3 -7 -6z"/>
<path d="M500 989 c-36 -10 -67 -18 -70 -19 -3 -1 5 -5 18 -10 12 -5 22 -14
22 -20 0 -6 -4 -9 -9 -6 -5 3 -14 -1 -21 -9 -15 -18 -10 -18 25 -5 23 9 25 13
15 25 -7 9 -11 17 -9 19 12 10 103 35 110 30 5 -3 9 0 9 5 0 14 -9 13 -90 -10z"/>
<path d="M1491 981 c-12 -8 -11 -22 9 -95 20 -74 26 -86 44 -86 36 0 44 12 37
55 -6 38 -8 40 -38 37 -31 -3 -32 -3 -30 40 1 24 7 46 12 50 15 11 -17 10 -34
-1z m79 -108 c-1 -29 -24 -53 -41 -42 -10 6 -11 9 -1 9 7 0 11 4 8 9 -4 5 0
12 6 14 7 3 4 6 -7 7 -20 1 -20 1 0 10 30 13 35 12 35 -7z"/>
<path d="M360 934 l-35 -25 30 7 c17 4 32 9 34 11 5 3 11 34 8 33 -1 -1 -18
-12 -37 -26z"/>
<path d="M1408 935 c-20 -14 -39 -25 -41 -25 -3 0 -40 -21 -83 -46 -44 -25
-68 -43 -54 -39 14 3 30 7 37 9 7 1 20 10 31 19 10 9 23 17 29 17 6 0 28 14
49 31 l39 31 3 -46 c2 -25 7 -46 11 -46 5 0 7 21 5 48 -1 26 -1 37 2 25 8 -36
20 -27 16 12 -2 19 -5 35 -6 35 -1 0 -18 -11 -38 -25z"/>
<path d="M1654 920 c0 -16 4 -30 8 -30 15 0 8 -28 -8 -34 -24 -9 -24 -9 -20
39 2 34 0 45 -11 45 -21 0 -37 -44 -28 -77 5 -15 8 -31 7 -35 -3 -11 -4 -11
115 23 60 17 118 33 131 36 29 7 28 21 -3 29 -14 3 -22 10 -19 15 3 5 3 9 -1
9 -3 0 -13 -12 -23 -27 -19 -32 -44 -42 -40 -17 2 9 -2 19 -9 21 -8 3 -11 -3
-8 -17 3 -13 0 -20 -8 -17 -6 2 -18 -2 -25 -10 -8 -7 -19 -10 -25 -6 -8 5 -8
8 1 11 7 2 17 13 23 24 10 18 9 20 -5 15 -9 -4 -15 -3 -15 1 4 21 -3 32 -20
32 -14 0 -18 -7 -17 -30z"/>
<path d="M2035 905 c-43 -14 -28 -19 24 -9 17 4 31 10 31 15 0 11 -5 11 -55
-6z"/>
<path d="M1124 873 c-5 -33 -10 -38 -34 -40 -22 -2 -29 3 -34 23 -4 16 -11 22
-18 18 -9 -6 -9 -9 0 -12 16 -5 15 -29 0 -35 -7 -2 -18 3 -24 11 -22 29 -32 7
-13 -28 11 -19 19 -27 19 -18 0 14 12 18 67 20 l67 3 9 39 c7 29 6 40 -4 47
-23 15 -29 10 -35 -28z"/>
<path d="M2960 880 c0 -28 -3 -30 -37 -31 -21 -1 -30 -3 -20 -6 13 -3 17 -15
17 -55 0 -28 3 -48 7 -45 3 4 6 25 5 48 -2 33 2 42 18 46 15 4 20 14 20 39 0
19 -2 34 -5 34 -3 0 -5 -13 -5 -30z"/>
<path d="M737 868 c-62 -22 -85 -34 -77 -42 7 -7 16 -7 30 2 11 6 27 12 35 12
18 0 20 -26 3 -33 -8 -3 -6 -6 5 -6 11 -1 17 6 17 23 0 17 9 28 32 39 18 9 36
13 40 11 4 -3 8 2 8 10 0 9 -1 16 -2 15 -2 0 -43 -14 -91 -31z"/>
<path d="M1890 860 c-14 -4 -20 -9 -15 -9 6 -1 3 -6 -5 -11 -12 -8 -10 -10 10
-10 14 0 45 -9 69 -20 67 -31 64 -22 -4 10 -60 29 -60 29 -25 31 19 1 49 5 65
9 26 7 23 8 -20 8 -27 0 -61 -4 -75 -8z"/>
<path d="M2104 838 c11 -6 45 -8 82 -5 67 5 70 3 81 -53 5 -30 13 -40 13 -17
0 10 8 17 20 17 15 0 19 6 18 25 -2 23 -28 37 -28 15 0 -5 -4 -10 -10 -10 -5
0 -10 9 -10 20 0 19 -7 20 -92 20 -72 -1 -89 -3 -74 -12z"/>
<path d="M2336 835 c5 -12 10 -13 20 -4 7 6 17 8 22 6 4 -3 14 -2 22 4 11 6 2
9 -27 9 -34 0 -41 -3 -37 -15z"/>
<path d="M2504 825 c4 -14 2 -25 -4 -25 -5 0 -10 9 -10 20 0 11 -2 20 -5 20
-6 0 -138 -41 -142 -44 -2 -1 11 -110 28 -242 16 -131 29 -250 28 -264 -2 -40
0 -52 10 -46 4 3 6 -6 3 -20 -4 -24 -3 -25 17 -13 22 15 28 29 11 29 -5 0 -10
5 -10 10 0 6 10 10 21 10 16 0 20 -5 16 -20 -3 -11 0 -21 6 -21 7 -1 -1 -4
-18 -8 -21 -4 -31 -13 -33 -29 -2 -12 0 -22 5 -21 19 2 77 28 63 28 -11 1 -11
4 -2 13 10 10 14 10 20 1 6 -10 27 -7 88 12 43 14 88 30 99 35 11 5 35 12 53
15 36 7 38 10 18 31 -19 19 -40 18 -32 -1 3 -9 0 -15 -8 -15 -13 0 -26 20 -26
41 0 5 6 9 14 9 8 0 16 6 19 13 4 10 -2 13 -19 9 -15 -3 -26 -13 -30 -28 -3
-13 -12 -24 -19 -24 -7 0 -16 -6 -18 -12 -4 -10 -6 -10 -6 0 -1 6 -6 12 -12
12 -5 0 -8 -4 -5 -9 4 -5 0 -12 -6 -14 -10 -4 -10 -8 1 -15 8 -6 9 -12 3 -16
-6 -3 -12 -1 -14 5 -5 15 -58 0 -58 -16 0 -8 -4 -17 -10 -20 -6 -4 -7 1 -3 11
5 15 2 16 -25 11 -20 -4 -32 -2 -32 4 0 6 5 7 10 4 6 -3 10 -1 10 5 0 6 6 8
13 4 9 -5 9 -4 1 5 -12 13 -33 19 -73 20 -20 1 -21 3 -11 16 7 8 19 15 26 15
8 0 22 9 31 20 10 11 23 20 29 20 16 0 25 -38 10 -44 -6 -2 1 -5 16 -5 15 -1
30 4 33 10 4 6 0 9 -11 7 -22 -4 -32 31 -13 42 7 5 -3 7 -23 5 -20 -2 -46 -13
-57 -24 -28 -28 -55 -28 -46 0 4 13 2 25 -5 29 -8 5 0 12 24 20 20 6 36 15 36
20 0 5 10 12 23 15 12 4 30 9 41 12 12 3 16 1 12 -6 -5 -7 4 -11 23 -11 35 0
40 10 12 27 -10 7 -27 36 -37 65 -13 37 -19 47 -22 32 -2 -12 -13 -26 -25 -32
-21 -11 -21 -11 3 -6 20 4 27 -1 37 -21 10 -22 9 -27 -10 -37 -19 -10 -26 -5
-65 38 -27 30 -36 36 -23 17 15 -22 20 -40 15 -58 -8 -30 -15 -36 -40 -29 -24
6 -27 70 -4 84 11 7 11 10 2 10 -7 0 -11 4 -7 9 3 5 1 12 -5 16 -6 4 -8 11 -5
16 4 5 2 9 -3 9 -6 0 -13 7 -16 16 -4 12 -1 14 13 9 28 -8 33 8 20 60 -8 32
-9 53 -2 68 6 12 11 26 11 31 0 5 6 12 13 17 10 6 10 10 0 23 -7 8 -10 20 -6
25 11 18 154 -130 167 -171 11 -38 30 -49 44 -26 5 7 2 9 -9 5 -13 -5 -15 0
-10 27 3 20 1 36 -6 40 -6 4 -11 2 -11 -5 0 -7 -11 2 -25 21 -14 19 -25 39
-25 46 0 6 -12 15 -26 18 -18 5 -24 12 -20 22 3 9 6 23 7 32 0 9 7 1 14 -18
l13 -35 2 30 c2 28 3 27 25 -20 12 -27 20 -55 18 -61 -2 -7 1 -15 7 -19 7 -5
10 6 9 34 -2 23 -6 41 -10 41 -12 0 -20 35 -13 54 16 41 32 11 40 -78 3 -33
10 -66 16 -73 5 -7 7 -17 3 -23 -3 -5 0 -10 8 -10 18 0 50 -47 42 -60 -3 -5 4
-14 16 -20 11 -7 18 -14 15 -17 -3 -3 4 -14 16 -24 11 -11 16 -19 10 -19 -7 0
-12 -5 -12 -11 0 -5 5 -7 10 -4 6 3 10 -1 10 -10 0 -9 6 -15 13 -12 19 7 10
45 -16 70 -26 24 -60 101 -49 111 3 4 -4 9 -16 13 -23 6 -30 27 -12 38 16 10
12 35 -6 35 -8 0 -12 -4 -9 -10 3 -5 2 -17 -3 -26 -7 -12 -10 -6 -15 27 -5 35
-2 50 16 76 12 18 27 31 32 29 6 -1 22 1 37 5 16 4 30 3 33 -2 4 -5 -5 -9 -19
-9 -34 0 -40 -14 -20 -45 16 -24 15 -25 -5 -25 -25 0 -25 2 -6 -43 10 -25 20
-34 32 -31 10 2 25 0 33 -6 13 -9 12 -13 -7 -29 -23 -20 -22 -40 8 -113 14
-35 44 -39 33 -5 -5 12 -8 35 -9 51 0 23 5 31 26 37 22 5 29 3 37 -16 6 -13 8
-32 5 -44 -4 -17 -1 -21 16 -21 18 0 20 3 11 19 -5 11 -10 29 -10 40 0 20 -19
45 -42 54 -9 4 -8 10 6 21 11 9 15 16 10 16 -6 0 -15 -5 -21 -11 -8 -8 -13 -8
-17 0 -9 14 1 31 20 31 17 0 17 5 4 31 -6 10 -17 19 -26 19 -11 0 -13 7 -8 26
6 23 4 25 -14 19 -12 -3 -29 -2 -37 2 -13 8 -12 11 9 22 22 12 28 11 52 -8 15
-11 23 -21 19 -21 -5 0 -1 -8 8 -18 18 -20 77 -190 77 -222 0 -11 6 -20 13
-20 14 -1 -21 -23 -41 -26 -19 -3 -28 -14 -12 -14 10 0 10 -4 -1 -17 -12 -15
-12 -16 3 -10 10 3 31 1 49 -5 23 -8 29 -15 26 -29 -4 -14 0 -19 13 -19 22 0
21 4 -66 273 l-55 167 -181 0 -180 0 6 -25z m-82 -70 c2 -14 -3 -20 -17 -20
-23 0 -33 34 -14 46 16 10 26 1 31 -26z m371 -7 c18 -12 34 -23 36 -24 2 -2
-4 -11 -13 -20 -14 -14 -22 -15 -43 -5 -20 9 -23 14 -14 25 8 10 9 16 1 21
-11 7 -14 25 -4 25 3 0 20 -10 37 -22z m-392 -74 c4 -21 3 -46 -1 -54 -6 -10
-10 -2 -15 25 -3 22 -8 48 -10 58 -2 11 1 17 8 14 7 -2 15 -21 18 -43z m429
-44 c0 -12 -48 -25 -58 -16 -8 9 18 26 41 26 9 0 17 -4 17 -10z m-130 -354 c0
-14 -34 -28 -44 -18 -6 5 24 31 37 32 4 0 7 -6 7 -14z"/>
<path d="M1770 830 c-14 -4 -37 -11 -52 -14 -16 -4 -28 -10 -28 -15 0 -10 51
2 102 24 35 15 19 19 -22 5z"/>
<path d="M493 784 l-102 -35 -40 -122 c-41 -124 -47 -148 -33 -146 18 3 33 -2
28 -9 -2 -4 102 -61 232 -126 130 -66 249 -128 265 -138 21 -15 28 -16 32 -6
48 139 125 391 120 396 -3 4 -9 1 -14 -6 -5 -8 -16 -9 -41 -2 -23 7 -36 6 -40
-1 -4 -5 -13 -9 -20 -7 -9 2 -15 -8 -16 -25 -3 -24 0 -28 19 -25 12 2 22 10
22 18 0 9 10 16 23 16 19 1 19 1 2 -3 -11 -2 -18 -8 -15 -13 3 -5 13 -7 23 -4
9 3 6 -2 -8 -10 -14 -8 -19 -15 -11 -16 32 0 -20 -150 -52 -150 -10 0 -15 -5
-12 -10 4 -6 9 -8 13 -6 4 2 16 -2 27 -10 27 -20 9 -17 -74 11 -71 24 -120 28
-112 9 2 -5 17 -15 33 -21 26 -11 29 -11 24 3 -5 12 -1 14 17 9 44 -14 82 -41
85 -63 2 -15 -2 -22 -13 -22 -9 0 -13 -4 -10 -10 3 -5 -1 -10 -10 -10 -8 0
-18 7 -21 15 -4 8 -16 15 -29 15 -48 0 -126 48 -82 51 6 0 -3 5 -21 10 -20 6
-30 14 -26 21 4 6 3 8 -3 5 -6 -4 -28 2 -49 12 -22 10 -64 24 -94 30 -65 14
-142 51 -148 71 -4 12 -1 11 14 -2 33 -29 125 -43 97 -14 -4 4 -8 16 -8 26 0
11 -4 20 -10 19 -5 0 -9 -7 -7 -15 3 -13 -1 -13 -18 -4 -11 6 -18 16 -14 21 3
6 -3 5 -13 -2 -13 -7 -26 -8 -35 -3 -14 8 -12 12 10 28 14 11 22 14 18 8 -5
-8 2 -8 26 0 21 8 33 8 35 1 2 -6 10 -18 17 -28 11 -16 13 -16 13 -1 0 9 -5
16 -11 16 -6 0 -4 5 4 10 13 8 12 10 -2 10 -10 0 -18 7 -18 16 0 14 3 14 18 3
14 -11 15 -11 5 1 -17 18 -46 22 -40 5 4 -9 -3 -12 -26 -9 -18 1 -37 3 -44 3
-25 2 1 39 36 53 33 13 40 13 57 0 10 -8 52 -30 91 -48 40 -19 77 -43 83 -54
6 -11 16 -20 22 -20 6 0 4 10 -6 25 -21 31 -20 41 1 24 14 -12 16 -12 11 1 -2
8 -23 24 -46 35 -23 11 -42 26 -42 34 0 11 -4 9 -15 -5 -12 -16 -16 -17 -24
-5 -5 8 -17 15 -28 16 -28 3 -57 17 -69 33 -9 13 -12 13 -17 -2 -8 -20 -37
-21 -37 0 0 8 3 13 8 11 4 -3 14 2 22 11 13 14 12 15 -2 10 -25 -10 -16 20 13
39 13 10 35 16 49 14 34 -4 45 -12 29 -21 -6 -5 -14 -24 -16 -44 -3 -27 0 -36
12 -36 8 0 15 6 15 14 0 8 6 17 13 20 9 3 7 9 -6 19 -18 15 -18 16 0 26 13 7
14 10 4 11 -13 0 -13 2 -2 13 11 10 14 10 18 0 3 -7 9 -13 14 -13 6 0 9 6 8
13 -5 43 8 46 69 17 28 -14 42 -27 42 -40 0 -13 7 -20 20 -20 11 0 20 -5 20
-11 0 -5 -4 -7 -10 -4 -5 3 -10 3 -11 -2 -5 -47 -3 -63 6 -59 5 2 9 9 7 16 -1
6 6 14 17 17 14 3 23 17 27 38 6 36 -1 59 -17 50 -5 -4 -12 1 -15 10 -4 10
-13 13 -25 10 -12 -4 -21 1 -29 15 -9 17 -14 18 -31 9 -17 -9 -21 -7 -26 10
-6 25 3 27 -120 -15z"/>
<path d="M140 790 c0 -12 -5 -17 -13 -14 -10 4 -12 -3 -9 -27 3 -22 7 -27 13
-18 6 9 8 -33 7 -102 -2 -64 -6 -115 -9 -113 -11 6 -8 -60 3 -74 9 -10 8 -16
-1 -22 -11 -6 -11 -9 0 -13 11 -4 11 -6 -1 -6 -13 -1 -13 -2 0 -11 13 -9 13
-11 0 -20 -10 -6 -11 -10 -2 -10 7 0 12 -13 12 -31 0 -16 -4 -28 -8 -25 -4 2
-6 -11 -4 -30 2 -19 8 -36 12 -39 5 -3 9 125 9 285 1 159 -1 290 -4 290 -3 0
-5 -9 -5 -20z"/>
<path d="M1302 800 c-18 -4 -42 -5 -53 -3 -10 3 -62 2 -114 -2 -93 -7 -95 -7
-95 -32 0 -30 25 -52 59 -53 l24 0 -22 24 c-13 14 -21 31 -18 38 4 9 6 7 6 -4
1 -10 4 -17 9 -15 13 4 51 -38 49 -55 -2 -9 -9 -24 -17 -34 -14 -18 -14 -18 7
0 17 14 37 18 90 18 98 -2 143 6 144 26 0 11 2 13 6 4 8 -21 32 6 25 30 -3 15
-1 19 9 16 8 -3 13 -12 11 -22 -2 -9 2 -16 8 -16 5 0 10 9 10 20 0 15 7 20 29
20 25 0 28 3 23 25 -4 24 -7 25 -81 24 -42 -1 -91 -5 -109 -9z m73 -40 c9 0
12 -6 9 -15 -9 -22 -23 -18 -34 8 -5 12 -9 16 -9 10 -1 -7 -6 -13 -11 -13 -6
0 -3 11 7 24 17 22 18 23 21 5 2 -10 10 -19 17 -19z m-62 7 c-4 -18 2 -26 24
-36 27 -12 27 -13 8 -27 -11 -8 -21 -11 -23 -6 -1 4 -19 6 -38 4 -28 -3 -35
-1 -32 9 2 8 14 18 26 24 13 6 22 19 22 32 0 13 4 23 9 23 4 0 6 -10 4 -23z
m-85 -9 c7 -7 12 -24 12 -38 0 -24 -3 -25 -41 -22 -31 3 -39 8 -37 21 2 9 11
15 21 15 10 -1 17 5 17 17 0 22 11 24 28 7z"/>
<path d="M1767 792 l-77 -16 6 -50 c4 -28 11 -57 16 -63 6 -7 8 -20 4 -29 -3
-8 3 -90 14 -182 28 -231 30 -241 43 -237 13 5 573 75 596 75 10 0 12 12 8 45
-2 26 -6 47 -8 49 -5 4 -104 15 -136 16 -35 0 -27 13 20 33 24 10 44 23 44 30
0 7 4 34 8 60 l7 48 -28 -7 c-40 -9 -45 -14 -37 -27 4 -7 0 -6 -10 2 -9 7 -17
19 -17 26 0 18 -21 24 -47 14 -29 -11 -30 -29 -1 -24 23 5 51 -12 43 -25 -3
-4 3 -14 12 -21 12 -10 14 -10 9 -1 -5 8 1 12 19 12 25 0 27 -3 21 -27 -8 -32
-34 -56 -54 -48 -7 2 -11 1 -8 -3 5 -9 -69 -82 -83 -82 -4 0 -8 -6 -8 -14 0
-11 15 -7 59 15 61 31 82 31 71 1 -14 -34 -46 -50 -91 -45 -27 3 -42 1 -38 -5
9 -15 -42 -26 -164 -36 -19 -2 -43 -6 -52 -11 -11 -4 -18 -3 -18 4 0 6 -5 11
-11 11 -5 0 -7 -4 -4 -10 3 -5 -1 -10 -10 -10 -9 0 -13 4 -10 10 4 7 -3 7 -20
0 -15 -6 -28 -10 -29 -10 -8 0 -28 60 -24 71 5 16 38 21 38 6 0 -7 4 -5 10 3
5 8 14 16 20 16 5 1 15 2 20 3 17 2 11 21 -7 21 -15 0 -16 2 -3 10 13 8 12 10
-2 10 -10 0 -18 -7 -18 -15 0 -8 -8 -15 -18 -15 -10 0 -23 -5 -29 -11 -6 -6
-17 -8 -23 -4 -9 6 -9 10 1 16 11 7 10 9 -4 9 -17 0 -17 2 2 29 22 30 49 39
139 43 24 1 46 6 49 11 4 6 -13 8 -43 4 -27 -4 -72 -9 -100 -13 l-51 -6 -6 77
c-4 43 -7 108 -7 144 l0 66 55 -3 c49 -3 55 -2 55 16 0 25 21 33 60 25 40 -8
49 -23 13 -23 -22 0 -25 -2 -13 -10 13 -8 12 -10 -5 -11 -11 -1 -2 -5 20 -8
39 -6 40 -7 43 -51 2 -29 6 -39 12 -30 4 7 6 28 3 45 -4 27 -2 33 18 38 28 7
42 0 35 -20 -4 -10 3 -8 20 6 15 12 33 21 42 21 18 0 -20 30 -61 48 -47 20
-45 13 3 -13 64 -34 42 -30 -56 10 -92 38 -112 40 -227 17z m539 -427 c4 -8
10 -12 15 -9 5 3 9 0 9 -5 0 -18 -28 -13 -39 7 -9 15 -11 14 -19 -8 -9 -23 -7
-26 32 -36 l41 -11 -40 -5 c-44 -5 -75 0 -75 12 0 11 53 70 63 70 4 0 10 -7
13 -15z"/>
<path d="M820 788 c0 -10 14 -21 36 -28 40 -13 58 -5 32 14 -10 7 -17 15 -15
17 1 2 -3 -1 -9 -8 -8 -9 -14 -8 -27 5 -16 15 -17 15 -17 0z"/>
<path d="M1594 780 c-86 -25 -114 -43 -54 -35 80 12 105 13 118 2 9 -7 12 -2
12 22 0 36 4 35 -76 11z"/>
<path d="M594 735 c-4 -9 -4 -27 -2 -40 6 -27 -1 -32 -19 -14 -8 8 -13 7 -18
-2 -5 -7 -4 -10 2 -6 6 4 13 -2 16 -13 3 -13 14 -20 29 -20 12 0 19 4 13 8
-13 9 -17 62 -5 62 5 0 8 9 7 20 -2 24 -15 26 -23 5z"/>
<path d="M1865 730 c-7 -12 5 -209 14 -214 3 -2 6 47 6 110 0 106 -4 129 -20
104z"/>
<path d="M2275 722 c-6 -19 -13 -23 -36 -20 -16 3 -29 0 -29 -5 0 -5 -13 -7
-30 -5 -16 3 -30 0 -30 -5 0 -6 25 -8 63 -5 34 3 55 4 46 1 -20 -5 -14 -43 7
-43 8 0 13 3 13 8 -4 22 3 32 24 32 22 -1 22 -1 2 -17 -20 -15 -20 -15 3 -10
28 6 29 -9 1 -23 -11 -7 -18 -14 -15 -17 3 -3 12 0 20 6 11 10 15 8 19 -6 3
-10 5 3 6 30 1 43 -1 47 -23 47 -19 0 -26 6 -29 28 -4 27 -4 27 -12 4z"/>
<path d="M278 707 l-58 -21 2 -190 3 -191 2 188 c4 205 0 192 61 190 6 -1 12
3 12 8 0 5 15 15 33 23 50 22 9 17 -55 -7z"/>
<path d="M1051 663 c1 -32 3 -50 6 -40 2 9 11 17 19 17 17 0 9 47 -13 68 -11
11 -13 4 -12 -45z"/>
<path d="M860 700 c0 -5 7 -10 15 -10 12 0 13 -4 6 -18 -8 -14 -6 -18 10 -19
10 -1 19 2 19 8 0 5 -5 9 -11 9 -5 0 -7 5 -3 11 3 6 0 15 -7 20 -19 12 -29 11
-29 -1z"/>
<path d="M1543 694 c-3 -8 -1 -20 6 -27 6 -6 11 -7 11 -3 0 5 7 3 15 -4 8 -7
15 -19 15 -27 0 -12 -3 -13 -14 -4 -18 15 -34 -5 -17 -22 6 -6 11 -8 11 -4 0
4 10 3 21 -4 14 -7 19 -7 15 0 -4 5 -1 19 6 30 12 19 13 18 24 -19 6 -21 10
-58 9 -82 -2 -24 1 -48 5 -53 6 -7 -2 -15 -20 -22 -33 -12 -39 -3 -14 22 17
17 13 32 -5 20 -14 -8 -43 -76 -36 -84 3 -3 19 3 36 13 47 28 56 12 54 -88 -2
-47 -6 -90 -10 -96 -4 -6 -23 -11 -43 -10 -39 0 -144 -6 -224 -13 -77 -7 -83
6 -83 175 l0 139 -36 40 c-39 42 -64 50 -74 20 -3 -10 -13 -18 -21 -17 -9 0
-20 -9 -25 -21 -6 -17 -5 -23 6 -23 8 0 18 6 22 14 12 20 71 8 85 -17 6 -12
11 -55 12 -96 1 -66 -1 -76 -16 -73 -9 1 -33 -4 -52 -12 -33 -14 -37 -14 -46
4 -5 10 -10 25 -10 32 0 7 -11 26 -25 42 -28 33 -27 28 -29 118 -1 42 3 63 8
57 13 -12 43 -12 51 1 3 6 -5 14 -19 20 -19 7 -33 5 -57 -8 l-31 -17 7 -74 c3
-40 13 -83 21 -96 17 -27 26 -83 14 -90 -5 -3 -12 11 -15 32 -12 71 -13 58 -8
-67 3 -69 7 -127 9 -129 4 -4 617 29 622 34 2 2 -2 98 -8 214 l-11 210 -37 41
c-40 43 -87 55 -99 24z m-415 -301 c6 -15 12 -33 12 -41 0 -8 10 -45 21 -83
12 -39 20 -72 18 -74 -9 -9 -74 13 -71 24 1 7 -4 21 -12 33 -17 23 -3 68 21
68 14 0 11 26 -8 78 -12 31 3 27 19 -5z m140 -85 c6 -18 12 -49 15 -68 5 -34
4 -35 -29 -37 -29 -1 -37 3 -50 28 -8 17 -14 44 -12 62 3 29 16 40 60 46 3 1
11 -14 16 -31z"/>
<path d="M2480 684 c0 -1 7 -18 15 -38 17 -40 43 -47 66 -19 10 12 11 15 1 9
-17 -10 -42 11 -42 35 0 12 -7 17 -20 16 -11 -1 -20 -2 -20 -3z"/>
<path d="M2120 671 c13 -9 13 -11 -2 -11 -13 0 -18 -8 -18 -30 0 -22 5 -30 18
-30 14 0 15 2 2 10 -12 8 -10 10 8 10 19 0 23 5 20 27 -2 19 -10 29 -23 31
-17 3 -17 1 -5 -7z"/>
<path d="M2170 646 c0 -19 4 -22 25 -18 16 3 25 11 25 23 0 14 -7 19 -25 19
-20 0 -25 -5 -25 -24z"/>
<path d="M1410 640 c-15 -27 -5 -38 20 -22 11 6 27 9 36 5 12 -4 15 -1 12 13
-5 28 -54 31 -68 4z"/>
<path d="M2043 641 c-9 -11 -21 -17 -26 -14 -6 4 -8 -3 -4 -18 4 -13 7 -45 7
-70 l0 -47 85 0 c47 1 88 5 91 9 3 5 0 9 -6 9 -6 0 -8 4 -5 10 3 5 0 7 -8 4
-8 -3 -18 -1 -21 5 -4 5 -18 6 -34 2 -15 -4 -36 -5 -47 -3 -23 3 -53 42 -34
42 8 0 8 4 -1 15 -16 19 -3 37 22 29 17 -5 20 -3 16 14 -3 12 -1 23 6 26 6 2
3 5 -7 5 -9 1 -25 -8 -34 -18z"/>
<path d="M754 639 c-3 -6 3 -21 15 -33 19 -18 23 -19 31 -6 8 13 10 12 10 -2
0 -10 -5 -18 -11 -18 -6 0 -7 -5 -2 -12 4 -7 8 -19 8 -25 0 -22 19 -17 32 8 7
13 13 35 13 48 0 20 -2 21 -15 11 -12 -10 -15 -9 -15 8 0 12 -9 22 -22 26 -32
8 -36 8 -44 -5z"/>
<path d="M1335 593 c2 -26 5 -69 6 -95 2 -27 7 -48 12 -48 5 0 7 17 4 39 -6
49 5 70 27 52 13 -11 18 -10 32 4 16 15 18 15 26 1 5 -9 14 -14 19 -10 7 4 9
-3 7 -17 -1 -12 -9 -24 -17 -27 -9 -3 -11 1 -7 16 10 29 -8 35 -34 12 -20 -18
-23 -28 -21 -87 1 -37 6 -74 12 -82 6 -11 8 4 7 47 -1 62 4 77 25 77 17 0 25
-34 20 -80 -4 -28 -2 -37 5 -30 6 6 13 37 16 70 3 33 6 67 7 75 1 8 -1 22 -5
31 -6 14 0 18 36 21 24 3 45 4 46 2 2 -1 6 -20 9 -42 4 -33 2 -42 -17 -55 -15
-10 -18 -17 -9 -22 14 -9 48 32 49 59 0 13 5 16 16 12 14 -5 15 -4 4 9 -7 8
-10 21 -7 29 4 10 1 13 -9 9 -9 -3 -14 1 -14 12 0 14 -9 16 -55 13 -31 -1 -57
1 -59 7 -3 6 -11 3 -18 -6 -20 -24 -58 -7 -58 26 0 24 -1 25 -16 10 -13 -12
-13 -19 -4 -30 12 -15 6 -35 -11 -35 -5 0 -9 15 -9 34 0 19 -4 38 -10 41 -6 4
-8 -12 -5 -42z"/>
<path d="M1778 539 c4 -71 10 -73 13 -6 2 41 5 47 25 47 19 0 23 -6 27 -37 3
-35 4 -34 5 10 l2 47 -37 0 -38 0 3 -61z"/>
<path d="M695 549 c-4 -22 -13 -52 -21 -67 -7 -14 -11 -29 -8 -34 9 -15 86
-60 91 -54 3 3 19 -2 35 -10 30 -16 45 -14 34 5 -4 6 -13 8 -21 4 -11 -4 -15
2 -15 20 0 14 -4 28 -9 32 -6 3 -8 -5 -5 -18 3 -21 1 -24 -20 -20 -25 5 -41
28 -30 44 8 13 -10 11 -24 -3 -9 -9 -12 -8 -12 5 0 9 6 17 13 17 6 0 23 10 37
21 14 12 18 19 10 16 -8 -2 -23 6 -33 19 -16 22 -16 23 3 29 11 4 17 12 13 21
-10 28 -31 14 -38 -27z"/>
<path d="M2340 520 c-1 -36 -2 -69 -1 -74 1 -5 -6 -3 -15 5 -15 12 -17 12 -13
0 3 -8 14 -19 25 -25 10 -6 22 -15 27 -21 8 -10 0 69 -13 140 -7 37 -8 36 -10
-25z"/>
<path d="M500 542 c0 -3 8 -11 18 -18 16 -13 16 -14 0 -8 -23 8 -24 -18 -3
-40 21 -20 19 -25 -7 -18 -14 3 -19 2 -14 -6 4 -7 17 -12 30 -12 13 0 44 -6
69 -14 40 -12 46 -12 51 1 12 31 6 55 -16 61 -12 3 -46 17 -75 32 -29 15 -53
25 -53 22z m55 -53 c4 -6 14 -8 22 -5 11 5 13 2 9 -10 -3 -8 -6 -21 -7 -27 0
-7 -4 -2 -9 11 -5 12 -16 22 -25 22 -8 0 -15 5 -15 10 0 13 17 13 25 -1z"/>
<path d="M2625 540 c-3 -5 3 -20 14 -32 26 -28 26 -36 -1 -66 l-23 -25 23 14
c12 8 22 17 22 21 0 5 7 8 15 8 9 0 15 6 14 13 -3 26 2 37 16 37 8 0 15 -8 15
-17 0 -15 2 -16 10 -3 14 22 -25 38 -51 22 -26 -17 -31 -15 -24 7 6 20 -20 38
-30 21z"/>
<path d="M2105 455 c-111 -24 -132 -32 -112 -40 10 -4 31 -1 49 8 18 9 37 12
43 8 5 -4 39 3 75 15 49 17 58 23 35 23 -16 0 -57 -7 -90 -14z"/>
<path d="M273 388 c-12 -40 -24 -80 -27 -88 -5 -12 15 -22 87 -44 120 -37 128
-39 92 -22 -35 16 -77 33 -88 34 -4 1 -21 9 -38 18 -27 13 -30 19 -23 42 4 15
7 35 8 45 0 9 2 17 5 17 11 0 111 -84 161 -135 52 -52 62 -58 168 -92 l113
-35 39 27 c22 15 40 29 40 30 0 4 -392 213 -510 273 -3 1 -16 -30 -27 -70z
m107 10 c25 -15 60 -34 77 -42 56 -25 302 -167 308 -177 4 -5 -1 -9 -9 -9 -9
0 -16 -5 -16 -10 0 -11 -35 -5 -80 13 -14 6 -30 11 -36 12 -7 2 -21 12 -33 24
-14 14 -29 19 -44 16 -16 -4 -32 3 -57 25 l-35 31 35 -17 35 -16 -31 28 c-38
35 -95 80 -151 118 -44 29 -58 51 -25 39 9 -4 37 -19 62 -35z"/>
<path d="M967 421 c-2 -11 -1 -35 3 -53 7 -30 8 -28 9 20 1 54 -3 66 -12 33z"/>
<path d="M1927 393 c-4 -3 -7 -10 -7 -15 0 -11 38 -4 52 10 9 9 6 12 -13 12
-14 0 -29 -3 -32 -7z"/>
<path d="M2948 372 c-10 -2 -18 -8 -18 -13 0 -6 -5 -7 -10 -4 -6 4 -17 1 -25
-5 -12 -10 -19 -10 -32 1 -16 13 -17 12 -5 -3 8 -10 9 -19 3 -22 -5 -4 -12 -2
-16 4 -9 14 -42 13 -48 -2 -3 -10 -10 -8 -23 5 -15 14 -15 17 -3 12 9 -3 22 1
29 10 11 13 10 15 -6 9 -10 -3 -25 -8 -32 -10 -10 -3 -10 -8 -1 -26 25 -47 30
-48 135 -14 67 22 100 37 102 48 3 17 -8 19 -50 10z"/>
<path d="M2582 351 c-21 -5 -20 -7 12 -17 26 -8 38 -7 52 3 10 7 14 16 10 20
-4 5 -14 0 -21 -10 -11 -15 -15 -16 -22 -4 -5 8 -17 11 -31 8z"/>
<path d="M1890 329 c-12 -8 -9 -10 13 -6 15 2 30 0 33 -4 3 -5 10 -9 15 -9 6
0 4 7 -5 15 -17 18 -35 19 -56 4z"/>
<path d="M2949 309 l-26 -10 -2 -137 c0 -75 2 -142 6 -149 5 -6 7 54 7 133
l-2 145 29 6 c16 3 32 10 35 14 7 11 -13 10 -47 -2z"/>
<path d="M1721 243 c-1 -56 -3 -63 -21 -63 -11 0 -20 -4 -20 -10 0 -15 50 -12
55 3 3 6 1 39 -4 72 l-9 60 -1 -62z"/>
<path d="M2741 242 c-69 -22 -116 -43 -118 -52 -3 -10 -2 -11 4 -4 4 6 20 14
36 18 27 6 27 6 29 -51 l2 -58 3 55 c5 63 7 67 49 74 17 3 44 12 59 20 16 8
32 13 36 11 4 -3 12 2 19 10 17 20 12 19 -119 -23z"/>
<path d="M220 250 c0 -13 5 -17 20 -13 11 3 26 1 33 -5 6 -5 31 -13 55 -17 23
-4 42 -11 42 -16 0 -6 4 -8 9 -5 5 4 21 2 35 -4 22 -8 26 -16 28 -52 l1 -43 4
38 c4 35 7 38 26 32 12 -3 28 -7 35 -7 6 -1 12 -5 12 -10 0 -5 4 -7 8 -4 4 2
37 -5 72 -18 l65 -22 5 -46 c3 -26 9 -50 13 -54 3 -4 4 17 0 45 l-6 52 29 -11
c16 -6 32 -17 36 -23 5 -8 8 -8 8 -1 0 8 10 8 35 0 19 -6 35 -14 35 -17 0 -3
11 -4 25 -1 17 3 28 14 35 36 8 26 9 22 6 -28 -3 -32 -1 -55 4 -50 4 5 10 52
13 104 3 52 8 106 11 120 4 14 -3 5 -14 -19 -11 -24 -26 -64 -32 -88 -6 -25
-16 -47 -22 -49 -7 -3 -131 34 -277 82 -377 123 -349 115 -349 94z"/>
<path d="M2305 260 c-27 -5 -81 -12 -120 -16 -40 -5 -58 -10 -42 -12 17 -2 27
-10 28 -20 0 -14 2 -14 6 -2 9 23 24 29 49 20 14 -6 24 -5 26 1 5 15 100 21
110 7 4 -7 8 -35 8 -61 0 -34 3 -46 11 -41 9 5 11 -12 7 -64 -3 -39 -1 -69 3
-66 5 3 9 32 9 65 0 57 1 59 28 60 26 1 42 4 52 8 5 3 31 9 55 14 8 2 21 9 27
15 18 18 -1 15 -77 -10 -39 -12 -69 -17 -74 -12 -4 5 -16 35 -25 67 -10 31
-21 56 -24 56 -4 -1 -29 -5 -57 -9z"/>
<path d="M1980 221 c-25 -3 -44 -9 -42 -13 1 -5 3 -32 4 -60 l1 -53 6 55 c6
55 6 55 41 56 19 0 43 4 53 8 9 5 23 6 30 3 8 -3 20 -1 28 4 16 10 -47 10
-121 0z"/>
<path d="M142 196 c-1 -10 -8 -16 -15 -13 -10 4 -12 -3 -9 -25 3 -22 7 -27 14
-17 6 9 8 -14 4 -65 -3 -51 -1 -75 5 -69 5 5 8 53 6 109 -1 54 -4 91 -5 80z"/>
<path d="M1785 190 c-3 -5 -12 -7 -20 -3 -8 3 -15 0 -15 -6 0 -13 32 -10 70 7
l25 11 -27 0 c-15 1 -29 -3 -33 -9z"/>
<path d="M2171 110 c0 -47 3 -91 8 -98 4 -7 6 24 4 70 -6 116 -11 128 -12 28z"/>
<path d="M288 120 c-1 -33 0 -60 5 -60 4 0 7 27 7 60 0 77 -7 77 -12 0z"/>
<path d="M1038 120 c-1 -33 0 -60 5 -60 4 0 7 27 7 60 0 77 -7 77 -12 0z"/>
<path d="M1540 169 c-58 -4 -108 -7 -112 -8 -11 -1 -10 -133 0 -149 5 -7 8 20
8 60 -1 72 -1 73 26 76 25 3 27 1 31 -45 l3 -48 2 50 2 51 60 1 c50 1 60 -1
60 -15 0 -15 2 -15 11 -2 7 11 9 -6 6 -63 -2 -46 0 -74 5 -69 5 5 8 44 6 88
l-3 79 -105 -6z"/>
<path d="M2243 120 c0 -36 2 -50 4 -32 2 17 2 47 0 65 -2 17 -4 3 -4 -33z"/>
<path d="M1318 149 c15 -5 36 -6 55 0 29 8 27 9 -23 9 -44 1 -50 -1 -32 -9z"/>
<path d="M1788 110 c-1 -28 0 -50 5 -50 4 0 7 23 7 50 0 65 -7 65 -12 0z"/>
<path d="M1080 141 c0 -12 44 -22 48 -11 2 6 16 10 32 10 22 0 30 -5 33 -22 4
-23 4 -23 6 -1 1 17 9 23 34 26 17 2 -10 5 -60 5 -51 1 -93 -2 -93 -7z"/>
<path d="M368 83 c5 -76 10 -83 11 -15 0 34 -2 62 -7 62 -4 0 -6 -21 -4 -47z"/>
<path d="M1868 83 c5 -76 10 -83 11 -15 0 34 -2 62 -7 62 -4 0 -6 -21 -4 -47z"/>
<path d="M2623 70 c0 -36 2 -50 4 -32 2 17 2 47 0 65 -2 17 -4 3 -4 -33z"/>
<path d="M973 55 c0 -33 2 -45 4 -27 2 18 2 45 0 60 -2 15 -4 0 -4 -33z"/>
</g>
</svg>
